<svg xmlns="http://www.w3.org/2000/svg" xmlns:xlink="http://www.w3.org/1999/xlink" width="100" zoomAndPan="magnify" viewBox="0 0 75 185.999996" height="248" preserveAspectRatio="xMidYMid meet" version="1.0"><defs><g/><clipPath id="07a20dc410"><path d="M 7.5 117.75 L 68.25 117.75 L 68.25 180.871094 L 7.5 180.871094 Z M 7.5 117.75 " clip-rule="nonzero"/></clipPath><clipPath id="7540c14e7f"><path d="M 37.875 117.75 C 21.097656 117.75 7.5 131.855469 7.5 149.253906 C 7.5 166.65625 21.097656 180.761719 37.875 180.761719 C 54.652344 180.761719 68.25 166.65625 68.25 149.253906 C 68.25 131.855469 54.652344 117.75 37.875 117.75 Z M 37.875 117.75 " clip-rule="nonzero"/></clipPath><clipPath id="980620de6c"><path d="M 4.125 4.199219 L 71.476562 4.199219 L 71.476562 116.851562 L 4.125 116.851562 Z M 4.125 4.199219 " clip-rule="nonzero"/></clipPath></defs><path stroke-linecap="butt" transform="matrix(0.75, 0, 0, 0.75, 0.000000806452, 0)" fill-opacity="1" fill="#2f2beb" fill-rule="nonzero" stroke-linejoin="miter" d="M 1.499999 10.000001 C 1.499999 5.307292 5.307291 1.5 10 1.5 L 90.000005 1.5 C 94.692713 1.5 98.500005 5.307292 98.500005 10.000001 L 98.500005 198.000013 C 98.500005 224.786473 76.786462 246.500016 50.000002 246.500016 C 23.213542 246.500016 1.499999 224.786473 1.499999 198.000013 Z M 1.499999 10.000001 " stroke="#ffffff" stroke-width="3" stroke-opacity="1" stroke-miterlimit="4"/><path fill="#ffffff" d="M 37.5 118.5 C 38.484375 118.5 39.460938 118.546875 40.441406 118.644531 C 41.417969 118.742188 42.390625 118.882812 43.351562 119.078125 C 44.316406 119.269531 45.269531 119.507812 46.207031 119.792969 C 47.148438 120.078125 48.074219 120.40625 48.980469 120.785156 C 49.886719 121.160156 50.773438 121.578125 51.640625 122.042969 C 52.507812 122.503906 53.351562 123.011719 54.167969 123.554688 C 54.984375 124.101562 55.773438 124.6875 56.53125 125.308594 C 57.292969 125.933594 58.019531 126.59375 58.714844 127.285156 C 59.40625 127.980469 60.066406 128.707031 60.691406 129.46875 C 61.3125 130.226562 61.898438 131.015625 62.445312 131.832031 C 62.988281 132.648438 63.496094 133.492188 63.957031 134.359375 C 64.421875 135.222656 64.839844 136.113281 65.214844 137.019531 C 65.59375 137.925781 65.921875 138.851562 66.207031 139.792969 C 66.492188 140.730469 66.730469 141.683594 66.921875 142.648438 C 67.117188 143.609375 67.257812 144.582031 67.355469 145.558594 C 67.453125 146.539062 67.5 147.515625 67.5 148.5 C 67.5 149.484375 67.453125 150.460938 67.355469 151.441406 C 67.257812 152.417969 67.117188 153.390625 66.921875 154.351562 C 66.730469 155.316406 66.492188 156.269531 66.207031 157.207031 C 65.921875 158.148438 65.59375 159.074219 65.214844 159.980469 C 64.839844 160.886719 64.421875 161.773438 63.957031 162.640625 C 63.496094 163.507812 62.988281 164.351562 62.445312 165.167969 C 61.898438 165.984375 61.3125 166.773438 60.691406 167.53125 C 60.066406 168.292969 59.40625 169.019531 58.714844 169.714844 C 58.019531 170.40625 57.292969 171.066406 56.53125 171.691406 C 55.773438 172.3125 54.984375 172.898438 54.167969 173.445312 C 53.351562 173.988281 52.507812 174.496094 51.640625 174.957031 C 50.773438 175.421875 49.886719 175.839844 48.980469 176.214844 C 48.074219 176.59375 47.148438 176.921875 46.207031 177.207031 C 45.269531 177.492188 44.316406 177.730469 43.351562 177.921875 C 42.390625 178.113281 41.417969 178.257812 40.441406 178.355469 C 39.460938 178.453125 38.484375 178.5 37.5 178.5 C 36.515625 178.5 35.539062 178.453125 34.558594 178.355469 C 33.582031 178.257812 32.609375 178.113281 31.648438 177.921875 C 30.683594 177.730469 29.730469 177.492188 28.792969 177.207031 C 27.851562 176.921875 26.925781 176.59375 26.019531 176.214844 C 25.113281 175.839844 24.226562 175.421875 23.359375 174.957031 C 22.492188 174.496094 21.648438 173.988281 20.832031 173.445312 C 20.015625 172.898438 19.226562 172.3125 18.46875 171.691406 C 17.707031 171.066406 16.980469 170.40625 16.285156 169.714844 C 15.59375 169.019531 14.933594 168.292969 14.308594 167.53125 C 13.6875 166.773438 13.101562 165.984375 12.554688 165.167969 C 12.011719 164.351562 11.503906 163.507812 11.042969 162.640625 C 10.578125 161.773438 10.160156 160.886719 9.785156 159.980469 C 9.40625 159.074219 9.078125 158.148438 8.792969 157.207031 C 8.507812 156.269531 8.269531 155.316406 8.078125 154.351562 C 7.882812 153.390625 7.742188 152.417969 7.644531 151.441406 C 7.546875 150.460938 7.5 149.484375 7.5 148.5 C 7.5 147.515625 7.546875 146.539062 7.644531 145.558594 C 7.742188 144.582031 7.882812 143.609375 8.078125 142.648438 C 8.269531 141.683594 8.507812 140.730469 8.792969 139.792969 C 9.078125 138.851562 9.40625 137.925781 9.785156 137.019531 C 10.160156 136.113281 10.578125 135.222656 11.042969 134.359375 C 11.503906 133.492188 12.011719 132.648438 12.554688 131.832031 C 13.101562 131.015625 13.6875 130.226562 14.308594 129.46875 C 14.933594 128.707031 15.59375 127.980469 16.285156 127.285156 C 16.980469 126.59375 17.707031 125.933594 18.46875 125.308594 C 19.226562 124.6875 20.015625 124.101562 20.832031 123.554688 C 21.648438 123.011719 22.492188 122.503906 23.359375 122.042969 C 24.226562 121.578125 25.113281 121.160156 26.019531 120.785156 C 26.925781 120.40625 27.851562 120.078125 28.792969 119.792969 C 29.730469 119.507812 30.683594 119.269531 31.648438 119.078125 C 32.609375 118.882812 33.582031 118.742188 34.558594 118.644531 C 35.539062 118.546875 36.515625 118.5 37.5 118.5 Z M 37.5 118.5 " fill-opacity="1" fill-rule="nonzero"/><path fill="#2f2beb" d="M 27.089844 160.199219 C 26.550781 160.199219 25.980469 160.160156 25.378906 160.078125 C 24.78125 160.019531 24.199219 159.929688 23.640625 159.808594 C 23.078125 159.691406 22.570312 159.558594 22.109375 159.421875 C 21.648438 159.28125 21.289062 159.148438 21.03125 159.03125 L 21.898438 155.308594 C 22.421875 155.53125 23.078125 155.769531 23.878906 156.03125 C 24.699219 156.269531 25.710938 156.390625 26.910156 156.390625 C 28.289062 156.390625 29.300781 156.128906 29.941406 155.609375 C 30.578125 155.089844 30.898438 154.390625 30.898438 153.511719 C 30.898438 152.96875 30.78125 152.519531 30.539062 152.160156 C 30.320312 151.78125 30.011719 151.480469 29.609375 151.261719 C 29.210938 151.019531 28.730469 150.859375 28.171875 150.78125 C 27.628906 150.679688 27.050781 150.628906 26.429688 150.628906 L 24.691406 150.628906 L 24.691406 147.03125 L 26.671875 147.03125 C 27.109375 147.03125 27.53125 146.992188 27.929688 146.910156 C 28.351562 146.828125 28.71875 146.699219 29.039062 146.519531 C 29.359375 146.320312 29.609375 146.058594 29.789062 145.738281 C 29.988281 145.398438 30.089844 144.980469 30.089844 144.480469 C 30.089844 144.101562 30.011719 143.769531 29.851562 143.488281 C 29.691406 143.210938 29.480469 142.980469 29.21875 142.800781 C 28.980469 142.621094 28.691406 142.492188 28.351562 142.410156 C 28.03125 142.308594 27.699219 142.261719 27.359375 142.261719 C 26.5 142.261719 25.699219 142.390625 24.960938 142.648438 C 24.238281 142.910156 23.578125 143.230469 22.980469 143.609375 L 21.390625 140.339844 C 21.710938 140.140625 22.078125 139.929688 22.5 139.710938 C 22.941406 139.492188 23.421875 139.289062 23.941406 139.109375 C 24.460938 138.929688 25.011719 138.78125 25.589844 138.660156 C 26.191406 138.539062 26.820312 138.480469 27.480469 138.480469 C 28.699219 138.480469 29.75 138.628906 30.628906 138.929688 C 31.53125 139.210938 32.269531 139.621094 32.851562 140.160156 C 33.429688 140.679688 33.859375 141.300781 34.140625 142.019531 C 34.421875 142.71875 34.558594 143.488281 34.558594 144.328125 C 34.558594 145.148438 34.328125 145.949219 33.871094 146.730469 C 33.410156 147.488281 32.789062 148.070312 32.011719 148.46875 C 33.089844 148.910156 33.921875 149.570312 34.5 150.449219 C 35.101562 151.308594 35.398438 152.351562 35.398438 153.570312 C 35.398438 154.53125 35.238281 155.421875 34.921875 156.238281 C 34.601562 157.039062 34.101562 157.738281 33.421875 158.339844 C 32.738281 158.917969 31.871094 159.378906 30.808594 159.71875 C 29.769531 160.039062 28.53125 160.199219 27.089844 160.199219 Z M 53.320312 149.308594 C 53.320312 152.808594 52.652344 155.5 51.3125 157.378906 C 49.992188 159.238281 48.160156 160.171875 45.820312 160.171875 C 43.480469 160.171875 41.640625 159.238281 40.300781 157.378906 C 38.980469 155.5 38.320312 152.808594 38.320312 149.308594 C 38.320312 147.570312 38.492188 146.03125 38.832031 144.691406 C 39.191406 143.351562 39.699219 142.21875 40.359375 141.300781 C 41.019531 140.378906 41.8125 139.679688 42.730469 139.199219 C 43.652344 138.71875 44.679688 138.480469 45.820312 138.480469 C 48.160156 138.480469 49.992188 139.417969 51.3125 141.300781 C 52.652344 143.160156 53.320312 145.828125 53.320312 149.308594 Z M 48.761719 149.308594 C 48.761719 148.269531 48.710938 147.328125 48.609375 146.488281 C 48.511719 145.628906 48.351562 144.890625 48.128906 144.269531 C 47.910156 143.648438 47.609375 143.167969 47.230469 142.828125 C 46.851562 142.492188 46.378906 142.320312 45.820312 142.320312 C 45.261719 142.320312 44.789062 142.492188 44.410156 142.828125 C 44.050781 143.167969 43.75 143.648438 43.511719 144.269531 C 43.289062 144.890625 43.128906 145.628906 43.03125 146.488281 C 42.929688 147.328125 42.878906 148.269531 42.878906 149.308594 C 42.878906 150.351562 42.929688 151.300781 43.03125 152.160156 C 43.128906 153.019531 43.289062 153.757812 43.511719 154.378906 C 43.75 155 44.050781 155.480469 44.410156 155.820312 C 44.789062 156.160156 45.261719 156.328125 45.820312 156.328125 C 46.378906 156.328125 46.851562 156.160156 47.230469 155.820312 C 47.609375 155.480469 47.910156 155 48.128906 154.378906 C 48.351562 153.757812 48.511719 153.019531 48.609375 152.160156 C 48.710938 151.300781 48.761719 150.351562 48.761719 149.308594 Z M 48.761719 149.308594 " fill-opacity="1" fill-rule="nonzero"/><path fill="#ffffff" d="M 24.15625 104.988281 C 23.304688 104.484375 22.453125 104.003906 21.601562 103.546875 C 20.746094 103.09375 19.890625 102.671875 19.027344 102.289062 L 19.027344 99.191406 C 20.371094 99.875 21.671875 100.585938 22.933594 101.316406 C 24.191406 102.046875 25.457031 102.820312 26.730469 103.636719 L 31.5 103.636719 L 31.5 106.445312 L 26.765625 106.445312 C 25.492188 107.261719 24.222656 108.042969 22.949219 108.785156 C 21.679688 109.519531 20.371094 110.226562 19.027344 110.910156 L 19.027344 107.652344 C 19.890625 107.269531 20.746094 106.855469 21.601562 106.410156 C 22.453125 105.964844 23.304688 105.492188 24.15625 104.988281 Z M 26.839844 99.871094 C 25.996094 99.871094 25.265625 99.746094 24.640625 99.492188 C 24.007812 99.230469 23.476562 98.886719 23.058594 98.46875 C 22.636719 98.046875 22.320312 97.566406 22.105469 97.027344 C 21.886719 96.476562 21.78125 95.910156 21.78125 95.335938 C 21.78125 93.992188 22.195312 92.929688 23.023438 92.148438 C 23.839844 91.371094 25.042969 90.980469 26.640625 90.980469 C 26.796875 90.980469 26.96875 90.984375 27.160156 90.996094 C 27.34375 91.007812 27.503906 91.023438 27.648438 91.035156 L 27.648438 97.117188 C 28.199219 97.058594 28.636719 96.800781 28.960938 96.34375 C 29.285156 95.886719 29.449219 95.277344 29.449219 94.507812 C 29.449219 94.015625 29.40625 93.535156 29.320312 93.066406 C 29.226562 92.585938 29.113281 92.199219 28.980469 91.898438 L 31.15625 91.539062 C 31.230469 91.679688 31.300781 91.875 31.375 92.113281 C 31.445312 92.351562 31.507812 92.625 31.554688 92.921875 C 31.613281 93.210938 31.660156 93.523438 31.699219 93.859375 C 31.734375 94.195312 31.753906 94.53125 31.753906 94.867188 C 31.753906 95.71875 31.625 96.464844 31.375 97.097656 C 31.121094 97.722656 30.78125 98.246094 30.347656 98.664062 C 29.902344 99.074219 29.382812 99.378906 28.78125 99.582031 C 28.183594 99.777344 27.535156 99.871094 26.839844 99.871094 Z M 25.8125 93.570312 C 25.585938 93.582031 25.363281 93.625 25.144531 93.699219 C 24.929688 93.757812 24.738281 93.859375 24.570312 94.003906 C 24.402344 94.136719 24.265625 94.308594 24.15625 94.527344 C 24.046875 94.730469 23.992188 94.988281 23.992188 95.300781 C 23.992188 95.597656 24.046875 95.859375 24.15625 96.074219 C 24.253906 96.289062 24.382812 96.46875 24.550781 96.613281 C 24.71875 96.757812 24.917969 96.871094 25.144531 96.957031 C 25.363281 97.027344 25.585938 97.082031 25.8125 97.117188 Z M 29.628906 85.292969 C 29.628906 85.027344 29.621094 84.777344 29.609375 84.535156 C 29.597656 84.296875 29.578125 84.105469 29.554688 83.960938 L 27.523438 83.960938 C 27.496094 84.066406 27.472656 84.230469 27.449219 84.445312 C 27.425781 84.664062 27.414062 84.859375 27.414062 85.039062 C 27.414062 85.292969 27.433594 85.53125 27.46875 85.761719 C 27.492188 85.976562 27.546875 86.167969 27.628906 86.335938 C 27.714844 86.503906 27.828125 86.636719 27.972656 86.730469 C 28.117188 86.828125 28.296875 86.875 28.511719 86.875 C 28.933594 86.875 29.226562 86.738281 29.394531 86.460938 C 29.550781 86.175781 29.628906 85.785156 29.628906 85.292969 Z M 21.78125 85.507812 C 21.78125 84.714844 21.871094 84.054688 22.050781 83.527344 C 22.230469 83 22.488281 82.582031 22.824219 82.269531 C 23.160156 81.945312 23.566406 81.714844 24.046875 81.585938 C 24.527344 81.453125 25.0625 81.386719 25.648438 81.386719 L 31.230469 81.386719 C 31.3125 81.769531 31.410156 82.304688 31.519531 82.988281 C 31.636719 83.671875 31.699219 84.5 31.699219 85.472656 C 31.699219 86.085938 31.644531 86.640625 31.535156 87.144531 C 31.429688 87.636719 31.253906 88.0625 31.015625 88.425781 C 30.761719 88.785156 30.4375 89.058594 30.042969 89.253906 C 29.644531 89.445312 29.160156 89.539062 28.585938 89.539062 C 28.03125 89.539062 27.5625 89.433594 27.179688 89.214844 C 26.796875 88.988281 26.488281 88.6875 26.261719 88.316406 C 26.035156 87.945312 25.871094 87.519531 25.777344 87.039062 C 25.667969 86.558594 25.613281 86.058594 25.613281 85.542969 C 25.613281 85.195312 25.632812 84.890625 25.667969 84.625 C 25.691406 84.351562 25.726562 84.128906 25.777344 83.960938 L 25.523438 83.960938 C 25.066406 83.960938 24.703125 84.097656 24.425781 84.375 C 24.148438 84.648438 24.011719 85.128906 24.011719 85.8125 C 24.011719 86.269531 24.046875 86.71875 24.121094 87.164062 C 24.179688 87.609375 24.269531 87.992188 24.390625 88.316406 L 22.230469 88.660156 C 22.183594 88.503906 22.132812 88.308594 22.085938 88.082031 C 22.027344 87.84375 21.976562 87.585938 21.941406 87.308594 C 21.894531 87.03125 21.859375 86.746094 21.835938 86.445312 C 21.796875 86.132812 21.78125 85.820312 21.78125 85.507812 Z M 24.40625 73.253906 C 24.347656 73.496094 24.289062 73.777344 24.226562 74.101562 C 24.15625 74.425781 24.121094 74.773438 24.121094 75.144531 C 24.121094 75.3125 24.136719 75.515625 24.175781 75.757812 C 24.199219 75.984375 24.226562 76.160156 24.265625 76.277344 L 31.5 76.277344 L 31.5 78.960938 L 22.535156 78.960938 C 22.367188 78.480469 22.210938 77.917969 22.066406 77.269531 C 21.910156 76.609375 21.835938 75.875 21.835938 75.074219 C 21.835938 74.929688 21.847656 74.753906 21.871094 74.550781 C 21.882812 74.347656 21.90625 74.144531 21.941406 73.9375 C 21.964844 73.734375 22.003906 73.53125 22.050781 73.328125 C 22.085938 73.121094 22.132812 72.949219 22.195312 72.804688 Z M 29.574219 68.648438 C 29.574219 68.15625 29.527344 67.808594 29.429688 67.605469 C 29.335938 67.402344 29.148438 67.300781 28.871094 67.300781 C 28.65625 67.300781 28.46875 67.429688 28.3125 67.695312 C 28.144531 67.957031 27.960938 68.359375 27.757812 68.902344 C 27.601562 69.320312 27.4375 69.703125 27.269531 70.054688 C 27.101562 70.390625 26.902344 70.675781 26.675781 70.917969 C 26.4375 71.15625 26.152344 71.34375 25.828125 71.476562 C 25.507812 71.605469 25.117188 71.671875 24.660156 71.671875 C 23.773438 71.671875 23.070312 71.34375 22.554688 70.683594 C 22.039062 70.023438 21.78125 69.117188 21.78125 67.964844 C 21.78125 67.390625 21.835938 66.835938 21.941406 66.308594 C 22.039062 65.78125 22.144531 65.359375 22.265625 65.050781 L 24.355469 65.515625 C 24.246094 65.828125 24.148438 66.171875 24.066406 66.542969 C 23.980469 66.902344 23.941406 67.3125 23.941406 67.765625 C 23.941406 68.605469 24.175781 69.027344 24.640625 69.027344 C 24.75 69.027344 24.847656 69.007812 24.929688 68.972656 C 25.015625 68.9375 25.097656 68.863281 25.183594 68.757812 C 25.253906 68.648438 25.339844 68.503906 25.433594 68.324219 C 25.519531 68.132812 25.613281 67.894531 25.722656 67.605469 C 25.9375 67.015625 26.152344 66.53125 26.371094 66.148438 C 26.574219 65.761719 26.800781 65.464844 27.054688 65.246094 C 27.292969 65.019531 27.5625 64.863281 27.863281 64.777344 C 28.164062 64.683594 28.511719 64.636719 28.90625 64.636719 C 29.84375 64.636719 30.550781 64.988281 31.03125 65.695312 C 31.511719 66.394531 31.753906 67.382812 31.753906 68.667969 C 31.753906 69.507812 31.679688 70.207031 31.535156 70.773438 C 31.390625 71.324219 31.273438 71.707031 31.175781 71.925781 L 28.996094 71.476562 C 29.179688 71.019531 29.320312 70.550781 29.429688 70.070312 C 29.527344 69.589844 29.574219 69.117188 29.574219 68.648438 Z M 26.746094 49.449219 C 27.492188 49.449219 28.175781 49.558594 28.800781 49.773438 C 29.410156 49.992188 29.941406 50.300781 30.382812 50.710938 C 30.816406 51.117188 31.152344 51.609375 31.390625 52.1875 C 31.632812 52.75 31.753906 53.386719 31.753906 54.09375 C 31.753906 54.789062 31.632812 55.425781 31.390625 56.003906 C 31.152344 56.566406 30.816406 57.050781 30.382812 57.460938 C 29.941406 57.867188 29.410156 58.1875 28.800781 58.414062 C 28.175781 58.640625 27.492188 58.757812 26.746094 58.757812 C 26.003906 58.757812 25.324219 58.640625 24.714844 58.414062 C 24.101562 58.175781 23.578125 57.851562 23.148438 57.441406 C 22.714844 57.023438 22.378906 56.53125 22.140625 55.964844 C 21.898438 55.390625 21.78125 54.765625 21.78125 54.09375 C 21.78125 53.410156 21.898438 52.785156 22.140625 52.222656 C 22.378906 51.644531 22.714844 51.15625 23.148438 50.746094 C 23.578125 50.339844 24.101562 50.019531 24.714844 49.792969 C 25.324219 49.5625 26.003906 49.449219 26.746094 49.449219 Z M 26.746094 52.1875 C 25.921875 52.1875 25.273438 52.355469 24.804688 52.691406 C 24.324219 53.015625 24.085938 53.480469 24.085938 54.09375 C 24.085938 54.707031 24.324219 55.179688 24.804688 55.515625 C 25.273438 55.851562 25.921875 56.019531 26.746094 56.019531 C 27.574219 56.019531 28.234375 55.851562 28.726562 55.515625 C 29.207031 55.179688 29.449219 54.707031 29.449219 54.09375 C 29.449219 53.480469 29.207031 53.015625 28.726562 52.691406 C 28.234375 52.355469 27.574219 52.1875 26.746094 52.1875 Z M 17.53125 43.269531 C 17.53125 42.765625 17.585938 42.304688 17.695312 41.882812 C 17.789062 41.460938 17.886719 41.140625 17.980469 40.910156 L 20.125 41.433594 C 20.015625 41.671875 19.9375 41.9375 19.890625 42.226562 C 19.828125 42.5 19.800781 42.757812 19.800781 43 C 19.800781 43.324219 19.847656 43.597656 19.945312 43.828125 C 20.027344 44.042969 20.148438 44.214844 20.304688 44.347656 C 20.460938 44.46875 20.644531 44.558594 20.863281 44.617188 C 21.078125 44.667969 21.3125 44.691406 21.5625 44.691406 L 22.03125 44.691406 L 22.03125 41.378906 L 24.265625 41.378906 L 24.265625 44.691406 L 31.5 44.691406 L 31.5 47.371094 L 21.527344 47.371094 C 20.304688 47.371094 19.332031 47.03125 18.613281 46.347656 C 17.890625 45.652344 17.53125 44.625 17.53125 43.269531 Z M 57 109.558594 L 44.527344 109.558594 L 44.527344 101.136719 L 46.882812 101.136719 L 46.882812 106.753906 L 49.332031 106.753906 L 49.332031 101.765625 L 51.636719 101.765625 L 51.636719 106.753906 L 54.640625 106.753906 L 54.640625 100.722656 L 57 100.722656 Z M 50.410156 94.675781 L 47.53125 92.804688 L 47.53125 90.03125 L 52.085938 93.273438 C 52.984375 92.550781 53.863281 91.898438 54.714844 91.308594 C 55.566406 90.722656 56.328125 90.253906 57 89.90625 L 57 92.785156 C 56.820312 92.882812 56.597656 93 56.335938 93.144531 C 56.058594 93.289062 55.777344 93.453125 55.488281 93.632812 C 55.1875 93.8125 54.894531 94.003906 54.605469 94.207031 C 54.304688 94.398438 54.035156 94.589844 53.796875 94.785156 C 54.023438 94.964844 54.277344 95.148438 54.550781 95.339844 C 54.828125 95.523438 55.109375 95.695312 55.398438 95.863281 C 55.675781 96.03125 55.949219 96.199219 56.226562 96.367188 C 56.503906 96.523438 56.761719 96.660156 57 96.78125 L 57 99.515625 C 56.699219 99.375 56.347656 99.175781 55.9375 98.921875 C 55.53125 98.671875 55.109375 98.402344 54.679688 98.113281 C 54.234375 97.8125 53.796875 97.5 53.363281 97.175781 C 52.921875 96.851562 52.507812 96.535156 52.121094 96.222656 C 51.367188 96.761719 50.605469 97.304688 49.835938 97.84375 C 49.054688 98.382812 48.289062 98.917969 47.53125 99.445312 L 47.53125 96.546875 Z M 52.339844 82.40625 C 51.511719 82.40625 50.851562 82.589844 50.359375 82.960938 C 49.855469 83.335938 49.601562 83.886719 49.601562 84.617188 C 49.601562 84.859375 49.613281 85.082031 49.636719 85.285156 C 49.648438 85.488281 49.667969 85.65625 49.691406 85.789062 L 54.535156 85.789062 C 54.640625 85.621094 54.730469 85.40625 54.804688 85.140625 C 54.875 84.863281 54.910156 84.589844 54.910156 84.3125 C 54.910156 83.039062 54.054688 82.40625 52.339844 82.40625 Z M 52.265625 79.667969 C 52.996094 79.667969 53.664062 79.757812 54.265625 79.9375 C 54.863281 80.117188 55.378906 80.382812 55.8125 80.730469 C 56.242188 81.078125 56.578125 81.511719 56.820312 82.027344 C 57.058594 82.542969 57.179688 83.136719 57.179688 83.808594 C 57.179688 84.179688 57.144531 84.527344 57.070312 84.851562 C 57 85.175781 56.898438 85.488281 56.765625 85.789062 L 60.328125 85.789062 L 60.328125 88.472656 L 47.855469 88.472656 C 47.785156 88.230469 47.71875 87.953125 47.65625 87.644531 C 47.585938 87.332031 47.527344 87.007812 47.476562 86.671875 C 47.429688 86.324219 47.394531 85.976562 47.371094 85.625 C 47.335938 85.265625 47.316406 84.925781 47.316406 84.601562 C 47.316406 83.820312 47.4375 83.125 47.675781 82.511719 C 47.902344 81.902344 48.234375 81.382812 48.664062 80.964844 C 49.085938 80.542969 49.601562 80.226562 50.214844 80.011719 C 50.824219 79.78125 51.511719 79.667969 52.265625 79.667969 Z M 52.339844 78.058594 C 51.496094 78.058594 50.765625 77.929688 50.140625 77.679688 C 49.507812 77.414062 48.976562 77.074219 48.558594 76.652344 C 48.136719 76.234375 47.820312 75.753906 47.605469 75.214844 C 47.386719 74.660156 47.28125 74.097656 47.28125 73.519531 C 47.28125 72.175781 47.695312 71.113281 48.523438 70.335938 C 49.339844 69.554688 50.542969 69.164062 52.140625 69.164062 C 52.296875 69.164062 52.46875 69.171875 52.660156 69.183594 C 52.84375 69.195312 53.003906 69.207031 53.148438 69.21875 L 53.148438 75.304688 C 53.699219 75.242188 54.136719 74.984375 54.460938 74.527344 C 54.785156 74.074219 54.949219 73.460938 54.949219 72.691406 C 54.949219 72.199219 54.90625 71.722656 54.820312 71.253906 C 54.726562 70.773438 54.613281 70.382812 54.480469 70.082031 L 56.65625 69.722656 C 56.730469 69.867188 56.800781 70.058594 56.875 70.300781 C 56.945312 70.539062 57.007812 70.808594 57.054688 71.109375 C 57.113281 71.398438 57.160156 71.710938 57.199219 72.046875 C 57.234375 72.382812 57.253906 72.71875 57.253906 73.054688 C 57.253906 73.90625 57.125 74.648438 56.875 75.285156 C 56.621094 75.910156 56.28125 76.429688 55.847656 76.851562 C 55.402344 77.257812 54.882812 77.566406 54.28125 77.769531 C 53.683594 77.960938 53.035156 78.058594 52.339844 78.058594 Z M 51.3125 71.757812 C 51.085938 71.769531 50.863281 71.8125 50.644531 71.882812 C 50.429688 71.941406 50.238281 72.046875 50.070312 72.1875 C 49.902344 72.320312 49.765625 72.496094 49.65625 72.710938 C 49.546875 72.914062 49.492188 73.171875 49.492188 73.484375 C 49.492188 73.785156 49.546875 74.042969 49.65625 74.257812 C 49.753906 74.476562 49.882812 74.65625 50.050781 74.800781 C 50.21875 74.941406 50.417969 75.058594 50.644531 75.140625 C 50.863281 75.214844 51.085938 75.265625 51.3125 75.304688 Z M 49.90625 61.390625 C 49.847656 61.628906 49.789062 61.910156 49.726562 62.234375 C 49.65625 62.558594 49.621094 62.90625 49.621094 63.28125 C 49.621094 63.449219 49.636719 63.652344 49.675781 63.890625 C 49.699219 64.121094 49.726562 64.292969 49.765625 64.414062 L 57 64.414062 L 57 67.09375 L 48.035156 67.09375 C 47.867188 66.617188 47.710938 66.050781 47.566406 65.402344 C 47.410156 64.742188 47.335938 64.011719 47.335938 63.207031 C 47.335938 63.0625 47.347656 62.890625 47.371094 62.683594 C 47.382812 62.480469 47.40625 62.277344 47.441406 62.074219 C 47.464844 61.871094 47.503906 61.664062 47.550781 61.460938 C 47.585938 61.257812 47.632812 61.082031 47.695312 60.9375 Z M 57 56.820312 L 57 59.5 L 47.53125 59.5 L 47.53125 56.820312 Z M 44.796875 56.566406 C 45.289062 56.566406 45.679688 56.730469 45.964844 57.054688 C 46.242188 57.367188 46.378906 57.738281 46.378906 58.167969 C 46.378906 58.601562 46.242188 58.980469 45.964844 59.304688 C 45.679688 59.617188 45.289062 59.773438 44.796875 59.773438 C 44.304688 59.773438 43.921875 59.617188 43.644531 59.304688 C 43.355469 58.980469 43.210938 58.601562 43.210938 58.167969 C 43.210938 57.738281 43.355469 57.367188 43.644531 57.054688 C 43.921875 56.730469 44.304688 56.566406 44.796875 56.566406 Z M 52.339844 54.75 C 51.496094 54.75 50.765625 54.621094 50.140625 54.371094 C 49.507812 54.105469 48.976562 53.765625 48.558594 53.34375 C 48.136719 52.925781 47.820312 52.445312 47.605469 51.90625 C 47.386719 51.351562 47.28125 50.789062 47.28125 50.210938 C 47.28125 48.867188 47.695312 47.804688 48.523438 47.027344 C 49.339844 46.246094 50.542969 45.855469 52.140625 45.855469 C 52.296875 45.855469 52.46875 45.863281 52.660156 45.875 C 52.84375 45.886719 53.003906 45.898438 53.148438 45.910156 L 53.148438 51.996094 C 53.699219 51.933594 54.136719 51.675781 54.460938 51.21875 C 54.785156 50.765625 54.949219 50.152344 54.949219 49.382812 C 54.949219 48.890625 54.90625 48.414062 54.820312 47.945312 C 54.726562 47.464844 54.613281 47.074219 54.480469 46.773438 L 56.65625 46.414062 C 56.730469 46.558594 56.800781 46.75 56.875 46.992188 C 56.945312 47.230469 57.007812 47.5 57.054688 47.800781 C 57.113281 48.089844 57.160156 48.402344 57.199219 48.738281 C 57.234375 49.074219 57.253906 49.410156 57.253906 49.746094 C 57.253906 50.597656 57.125 51.339844 56.875 51.976562 C 56.621094 52.601562 56.28125 53.121094 55.847656 53.542969 C 55.402344 53.949219 54.882812 54.257812 54.28125 54.460938 C 53.683594 54.652344 53.035156 54.75 52.339844 54.75 Z M 51.3125 48.449219 C 51.085938 48.460938 50.863281 48.503906 50.644531 48.574219 C 50.429688 48.632812 50.238281 48.738281 50.070312 48.878906 C 49.902344 49.011719 49.765625 49.1875 49.65625 49.402344 C 49.546875 49.605469 49.492188 49.863281 49.492188 50.175781 C 49.492188 50.476562 49.546875 50.734375 49.65625 50.949219 C 49.753906 51.167969 49.882812 51.347656 50.050781 51.492188 C 50.21875 51.632812 50.417969 51.75 50.644531 51.832031 C 50.863281 51.90625 51.085938 51.957031 51.3125 51.996094 Z M 47.855469 43.785156 C 47.722656 43.332031 47.605469 42.742188 47.496094 42.023438 C 47.375 41.304688 47.316406 40.546875 47.316406 39.753906 C 47.316406 38.949219 47.425781 38.285156 47.640625 37.757812 C 47.84375 37.21875 48.136719 36.789062 48.523438 36.480469 C 48.90625 36.167969 49.363281 35.945312 49.890625 35.8125 C 50.417969 35.679688 51.007812 35.613281 51.652344 35.613281 L 57 35.613281 L 57 38.296875 L 51.976562 38.296875 C 51.113281 38.296875 50.503906 38.410156 50.140625 38.640625 C 49.78125 38.867188 49.601562 39.292969 49.601562 39.917969 C 49.601562 40.109375 49.613281 40.3125 49.636719 40.527344 C 49.648438 40.746094 49.667969 40.9375 49.691406 41.105469 L 57 41.105469 L 57 43.785156 Z M 52.265625 33.636719 C 51.582031 33.636719 50.941406 33.527344 50.339844 33.3125 C 49.726562 33.085938 49.199219 32.761719 48.757812 32.339844 C 48.300781 31.921875 47.941406 31.410156 47.675781 30.8125 C 47.410156 30.210938 47.28125 29.527344 47.28125 28.757812 C 47.28125 28.253906 47.328125 27.792969 47.425781 27.375 C 47.507812 26.953125 47.632812 26.546875 47.800781 26.148438 L 49.945312 26.707031 C 49.847656 26.960938 49.765625 27.234375 49.691406 27.535156 C 49.621094 27.835938 49.585938 28.171875 49.585938 28.542969 C 49.585938 29.335938 49.828125 29.929688 50.320312 30.324219 C 50.8125 30.710938 51.460938 30.902344 52.265625 30.902344 C 53.117188 30.902344 53.777344 30.722656 54.246094 30.359375 C 54.714844 29.988281 54.949219 29.347656 54.949219 28.433594 C 54.949219 28.109375 54.917969 27.761719 54.859375 27.390625 C 54.796875 27.019531 54.703125 26.675781 54.570312 26.367188 L 56.765625 25.988281 C 56.898438 26.300781 57.011719 26.6875 57.109375 27.15625 C 57.203125 27.625 57.253906 28.140625 57.253906 28.707031 C 57.253906 29.570312 57.125 30.3125 56.875 30.9375 C 56.609375 31.5625 56.257812 32.078125 55.8125 32.484375 C 55.367188 32.882812 54.847656 33.175781 54.246094 33.367188 C 53.632812 33.546875 52.972656 33.636719 52.265625 33.636719 Z M 52.339844 25.09375 C 51.496094 25.09375 50.765625 24.96875 50.140625 24.714844 C 49.507812 24.453125 48.976562 24.109375 48.558594 23.691406 C 48.136719 23.269531 47.820312 22.789062 47.605469 22.25 C 47.386719 21.699219 47.28125 21.132812 47.28125 20.558594 C 47.28125 19.214844 47.695312 18.152344 48.523438 17.371094 C 49.339844 16.59375 50.542969 16.203125 52.140625 16.203125 C 52.296875 16.203125 52.46875 16.207031 52.660156 16.21875 C 52.84375 16.230469 53.003906 16.246094 53.148438 16.257812 L 53.148438 22.339844 C 53.699219 22.28125 54.136719 22.023438 54.460938 21.566406 C 54.785156 21.109375 54.949219 20.5 54.949219 19.730469 C 54.949219 19.238281 54.90625 18.757812 54.820312 18.289062 C 54.726562 17.808594 54.613281 17.421875 54.480469 17.121094 L 56.65625 16.761719 C 56.730469 16.90625 56.800781 17.097656 56.875 17.335938 C 56.945312 17.578125 57.007812 17.847656 57.054688 18.144531 C 57.113281 18.433594 57.160156 18.746094 57.199219 19.082031 C 57.234375 19.417969 57.253906 19.753906 57.253906 20.089844 C 57.253906 20.941406 57.125 21.6875 56.875 22.324219 C 56.621094 22.945312 56.28125 23.46875 55.847656 23.886719 C 55.402344 24.296875 54.882812 24.601562 54.28125 24.804688 C 53.683594 25 53.035156 25.09375 52.339844 25.09375 Z M 51.3125 18.792969 C 51.085938 18.804688 50.863281 18.847656 50.644531 18.921875 C 50.429688 18.980469 50.238281 19.082031 50.070312 19.226562 C 49.902344 19.359375 49.765625 19.53125 49.65625 19.75 C 49.546875 19.953125 49.492188 20.210938 49.492188 20.523438 C 49.492188 20.824219 49.546875 21.082031 49.65625 21.296875 C 49.753906 21.511719 49.882812 21.691406 50.050781 21.835938 C 50.21875 21.980469 50.417969 22.09375 50.644531 22.179688 C 50.863281 22.25 51.085938 22.304688 51.3125 22.339844 Z M 51.3125 18.792969 " fill-opacity="1" fill-rule="nonzero"/><g clip-path="url(#07a20dc410)"><g clip-path="url(#7540c14e7f)"><path fill="#ffffff" d="M 7.5 117.75 L 68.25 117.75 L 68.25 180.871094 L 7.5 180.871094 Z M 7.5 117.75 " fill-opacity="1" fill-rule="nonzero"/></g></g><g fill="#2f2beb" fill-opacity="1"><g transform="translate(19.195312, 159.74999)"><g><path d="M 8.4375 0.296875 C 6.21875 0.296875 4.457031 -0.171875 3.15625 -1.109375 C 1.851562 -2.046875 1.03125 -3.375 0.6875 -5.09375 L 3.78125 -6.546875 L 4.109375 -6.484375 C 4.453125 -5.335938 4.945312 -4.503906 5.59375 -3.984375 C 6.25 -3.460938 7.148438 -3.203125 8.296875 -3.203125 C 9.410156 -3.203125 10.257812 -3.460938 10.84375 -3.984375 C 11.425781 -4.503906 11.71875 -5.257812 11.71875 -6.25 C 11.71875 -7.21875 11.425781 -7.960938 10.84375 -8.484375 C 10.269531 -9.003906 9.421875 -9.265625 8.296875 -9.265625 L 5.1875 -9.265625 L 5.1875 -12.453125 L 7.90625 -12.453125 C 8.832031 -12.453125 9.566406 -12.679688 10.109375 -13.140625 C 10.660156 -13.597656 10.9375 -14.257812 10.9375 -15.125 C 10.9375 -15.96875 10.675781 -16.601562 10.15625 -17.03125 C 9.644531 -17.46875 8.9375 -17.6875 8.03125 -17.6875 C 7.101562 -17.6875 6.28125 -17.46875 5.5625 -17.03125 C 4.851562 -16.601562 4.285156 -16.019531 3.859375 -15.28125 L 3.53125 -15.21875 L 1.375 -17.734375 C 2.101562 -18.710938 3.035156 -19.5 4.171875 -20.09375 C 5.316406 -20.695312 6.675781 -21 8.25 -21 C 10.425781 -21 12.082031 -20.546875 13.21875 -19.640625 C 14.363281 -18.734375 14.9375 -17.457031 14.9375 -15.8125 C 14.9375 -14.820312 14.703125 -13.972656 14.234375 -13.265625 C 13.773438 -12.566406 13.113281 -11.960938 12.25 -11.453125 L 12.25 -11.15625 C 14.632812 -10.3125 15.828125 -8.613281 15.828125 -6.0625 C 15.828125 -4.78125 15.550781 -3.660156 15 -2.703125 C 14.457031 -1.753906 13.632812 -1.015625 12.53125 -0.484375 C 11.425781 0.0351562 10.0625 0.296875 8.4375 0.296875 Z M 8.4375 0.296875 "/></g></g></g><g fill="#2f2beb" fill-opacity="1"><g transform="translate(36.324485, 159.74999)"><g><path d="M 10.109375 0.296875 C 8.421875 0.296875 6.953125 -0.078125 5.703125 -0.828125 C 4.453125 -1.578125 3.476562 -2.742188 2.78125 -4.328125 C 2.082031 -5.921875 1.734375 -7.925781 1.734375 -10.34375 C 1.734375 -12.769531 2.082031 -14.773438 2.78125 -16.359375 C 3.476562 -17.953125 4.453125 -19.125 5.703125 -19.875 C 6.953125 -20.625 8.421875 -21 10.109375 -21 C 11.804688 -21 13.28125 -20.625 14.53125 -19.875 C 15.78125 -19.125 16.753906 -17.953125 17.453125 -16.359375 C 18.148438 -14.773438 18.5 -12.769531 18.5 -10.34375 C 18.5 -7.925781 18.148438 -5.921875 17.453125 -4.328125 C 16.753906 -2.742188 15.78125 -1.578125 14.53125 -0.828125 C 13.28125 -0.078125 11.804688 0.296875 10.109375 0.296875 Z M 10.109375 -3.171875 C 11.035156 -3.171875 11.8125 -3.394531 12.4375 -3.84375 C 13.0625 -4.289062 13.539062 -5.039062 13.875 -6.09375 C 14.207031 -7.15625 14.375 -8.570312 14.375 -10.34375 C 14.375 -12.125 14.207031 -13.539062 13.875 -14.59375 C 13.539062 -15.65625 13.0625 -16.410156 12.4375 -16.859375 C 11.8125 -17.304688 11.035156 -17.53125 10.109375 -17.53125 C 9.179688 -17.53125 8.40625 -17.304688 7.78125 -16.859375 C 7.164062 -16.410156 6.6875 -15.65625 6.34375 -14.59375 C 6.007812 -13.539062 5.84375 -12.125 5.84375 -10.34375 C 5.84375 -8.570312 6.007812 -7.15625 6.34375 -6.09375 C 6.6875 -5.039062 7.164062 -4.289062 7.78125 -3.84375 C 8.40625 -3.394531 9.179688 -3.171875 10.109375 -3.171875 Z M 10.109375 -3.171875 "/></g></g></g><g clip-path="url(#980620de6c)"><path fill="#2f2beb" d="M 4.125 4.199219 L 71.476562 4.199219 L 71.476562 116.800781 L 4.125 116.800781 Z M 4.125 4.199219 " fill-opacity="1" fill-rule="nonzero"/></g><g fill="#ffffff" fill-opacity="1"><g transform="translate(27.744799, 116.827302)"><g><path d="M 0.140625 -5.453125 C 0.140625 -4.535156 -0.046875 -3.722656 -0.421875 -3.015625 C -0.796875 -2.316406 -1.363281 -1.769531 -2.125 -1.375 C -2.894531 -0.976562 -3.851562 -0.78125 -5 -0.78125 C -6.144531 -0.78125 -7.097656 -0.976562 -7.859375 -1.375 C -8.628906 -1.769531 -9.203125 -2.316406 -9.578125 -3.015625 C -9.953125 -3.722656 -10.140625 -4.535156 -10.140625 -5.453125 C -10.140625 -6.367188 -9.953125 -7.175781 -9.578125 -7.875 C -9.210938 -8.570312 -8.644531 -9.113281 -7.875 -9.5 C -7.101562 -9.894531 -6.144531 -10.09375 -5 -10.09375 C -3.851562 -10.09375 -2.894531 -9.894531 -2.125 -9.5 C -1.351562 -9.113281 -0.78125 -8.570312 -0.40625 -7.875 C -0.0390625 -7.175781 0.140625 -6.367188 0.140625 -5.453125 Z M -1.578125 -5.453125 C -1.578125 -6.296875 -1.847656 -6.941406 -2.390625 -7.390625 C -2.929688 -7.835938 -3.800781 -8.0625 -5 -8.0625 C -6.1875 -8.0625 -7.050781 -7.835938 -7.59375 -7.390625 C -8.144531 -6.941406 -8.421875 -6.296875 -8.421875 -5.453125 C -8.421875 -4.597656 -8.144531 -3.945312 -7.59375 -3.5 C -7.050781 -3.050781 -6.1875 -2.828125 -5 -2.828125 C -3.800781 -2.828125 -2.929688 -3.050781 -2.390625 -3.5 C -1.847656 -3.945312 -1.578125 -4.597656 -1.578125 -5.453125 Z M -1.578125 -5.453125 "/></g></g></g><g fill="#ffffff" fill-opacity="1"><g transform="translate(27.744799, 106.363727)"><g><path d="M -5.625 -1.875 C -5.625 -1.507812 -5.75 -1.21875 -6 -1 C -6.25 -0.78125 -6.601562 -0.671875 -7.0625 -0.671875 C -7.820312 -0.671875 -8.472656 -0.867188 -9.015625 -1.265625 C -9.566406 -1.671875 -10.035156 -2.222656 -10.421875 -2.921875 L -9.546875 -3.46875 C -9.316406 -3.050781 -9.050781 -2.703125 -8.75 -2.421875 C -8.457031 -2.140625 -8.15625 -1.976562 -7.84375 -1.9375 C -7.832031 -2.289062 -7.722656 -2.566406 -7.515625 -2.765625 C -7.316406 -2.960938 -7.054688 -3.0625 -6.734375 -3.0625 C -6.523438 -3.0625 -6.332031 -3.007812 -6.15625 -2.90625 C -5.988281 -2.8125 -5.859375 -2.675781 -5.765625 -2.5 C -5.671875 -2.320312 -5.625 -2.113281 -5.625 -1.875 Z M -5.625 -1.875 "/></g></g></g><g fill="#ffffff" fill-opacity="1"><g transform="translate(27.744799, 102.985063)"><g><path d="M 3.0625 -6.0625 L -0.90625 -6.0625 L -0.9375 -5.90625 C -0.21875 -5.457031 0.140625 -4.726562 0.140625 -3.71875 C 0.140625 -3.125 0 -2.597656 -0.28125 -2.140625 C -0.570312 -1.679688 -1.007812 -1.320312 -1.59375 -1.0625 C -2.175781 -0.800781 -2.894531 -0.671875 -3.75 -0.671875 C -4.613281 -0.671875 -5.335938 -0.804688 -5.921875 -1.078125 C -6.515625 -1.347656 -6.957031 -1.71875 -7.25 -2.1875 C -7.539062 -2.65625 -7.6875 -3.203125 -7.6875 -3.828125 C -7.6875 -4.296875 -7.597656 -4.703125 -7.421875 -5.046875 C -7.253906 -5.398438 -6.984375 -5.6875 -6.609375 -5.90625 L -6.640625 -6.0625 L -7.546875 -6.0625 L -7.546875 -7.953125 L 3.0625 -7.953125 Z M -1.46875 -4.34375 C -1.46875 -4.875 -1.65625 -5.296875 -2.03125 -5.609375 C -2.40625 -5.921875 -2.976562 -6.078125 -3.75 -6.078125 C -4.53125 -6.078125 -5.113281 -5.921875 -5.5 -5.609375 C -5.882812 -5.296875 -6.078125 -4.875 -6.078125 -4.34375 C -6.078125 -3.78125 -5.890625 -3.351562 -5.515625 -3.0625 C -5.140625 -2.769531 -4.550781 -2.625 -3.75 -2.625 C -2.226562 -2.625 -1.46875 -3.195312 -1.46875 -4.34375 Z M -1.46875 -4.34375 "/></g></g></g><g fill="#ffffff" fill-opacity="1"><g transform="translate(27.744799, 94.372993)"><g><path d="M 0.140625 -3.453125 C 0.140625 -2.609375 -0.0859375 -1.984375 -0.546875 -1.578125 C -1.015625 -1.171875 -1.679688 -0.96875 -2.546875 -0.96875 L -7.546875 -0.96875 L -7.546875 -2.859375 L -2.78125 -2.859375 C -2.320312 -2.859375 -1.984375 -2.957031 -1.765625 -3.15625 C -1.554688 -3.351562 -1.453125 -3.660156 -1.453125 -4.078125 C -1.453125 -4.609375 -1.625 -5.019531 -1.96875 -5.3125 C -2.3125 -5.601562 -2.851562 -5.75 -3.59375 -5.75 L -7.546875 -5.75 L -7.546875 -7.640625 L 0 -7.640625 L 0 -5.8125 L -1.109375 -5.8125 L -1.140625 -5.671875 C -0.710938 -5.429688 -0.390625 -5.132812 -0.171875 -4.78125 C 0.0351562 -4.4375 0.140625 -3.992188 0.140625 -3.453125 Z M 0.140625 -3.453125 "/></g></g></g><g fill="#ffffff" fill-opacity="1"><g transform="translate(27.744799, 86.075201)"><g><path d="M 0 -5.1875 L 0 -2.9375 L -7.546875 -0.140625 L -7.546875 -2.125 L -2.171875 -4 L -2.171875 -4.15625 L -7.546875 -6.03125 L -7.546875 -7.96875 Z M 0 -5.1875 "/></g></g></g><g fill="#ffffff" fill-opacity="1"><g transform="translate(27.744799, 78.392299)"><g/></g></g><g fill="#ffffff" fill-opacity="1"><g transform="translate(27.744799, 75.512379)"><g><path d="M 0 -2.125 L 0 -0.125 L -3.90625 -2.28125 L -7.546875 -0.25 L -7.546875 -2.265625 L -5.0625 -3.578125 L -5.0625 -3.734375 L -7.546875 -5.046875 L -7.546875 -7 L -3.90625 -5.03125 L 0 -7.125 L 0 -5.109375 L -2.75 -3.6875 L -2.75 -3.53125 Z M 0 -2.125 "/></g></g></g><g fill="#ffffff" fill-opacity="1"><g transform="translate(27.744799, 68.683492)"><g><path d="M 0.140625 -4.375 C 0.140625 -3.644531 -0.0078125 -3 -0.3125 -2.4375 C -0.613281 -1.875 -1.054688 -1.4375 -1.640625 -1.125 C -2.222656 -0.820312 -2.929688 -0.671875 -3.765625 -0.671875 C -4.597656 -0.671875 -5.304688 -0.820312 -5.890625 -1.125 C -6.484375 -1.4375 -6.929688 -1.875 -7.234375 -2.4375 C -7.535156 -3 -7.6875 -3.644531 -7.6875 -4.375 C -7.6875 -5.113281 -7.535156 -5.765625 -7.234375 -6.328125 C -6.929688 -6.890625 -6.484375 -7.320312 -5.890625 -7.625 C -5.304688 -7.9375 -4.597656 -8.09375 -3.765625 -8.09375 C -2.929688 -8.09375 -2.222656 -7.9375 -1.640625 -7.625 C -1.054688 -7.320312 -0.613281 -6.890625 -0.3125 -6.328125 C -0.0078125 -5.765625 0.140625 -5.113281 0.140625 -4.375 Z M -1.46875 -4.375 C -1.46875 -5.550781 -2.234375 -6.140625 -3.765625 -6.140625 C -4.566406 -6.140625 -5.148438 -5.988281 -5.515625 -5.6875 C -5.890625 -5.382812 -6.078125 -4.945312 -6.078125 -4.375 C -6.078125 -3.207031 -5.304688 -2.625 -3.765625 -2.625 C -2.234375 -2.625 -1.46875 -3.207031 -1.46875 -4.375 Z M -1.46875 -4.375 "/></g></g></g><g fill="#ffffff" fill-opacity="1"><g transform="translate(27.744799, 60.34471)"><g><path d="M 0 -1.09375 L -7.546875 -1.09375 L -7.546875 -2.90625 L -6.4375 -2.90625 L -6.40625 -3.046875 C -7.257812 -3.515625 -7.6875 -4.273438 -7.6875 -5.328125 C -7.6875 -6.203125 -7.445312 -6.84375 -6.96875 -7.25 C -6.5 -7.65625 -5.8125 -7.859375 -4.90625 -7.859375 L 0 -7.859375 L 0 -5.96875 L -4.671875 -5.96875 C -5.171875 -5.96875 -5.53125 -5.863281 -5.75 -5.65625 C -5.96875 -5.457031 -6.078125 -5.140625 -6.078125 -4.703125 C -6.078125 -4.160156 -5.898438 -3.738281 -5.546875 -3.4375 C -5.203125 -3.132812 -4.65625 -2.984375 -3.90625 -2.984375 L 0 -2.984375 Z M 0 -1.09375 "/></g></g></g><g fill="#ffffff" fill-opacity="1"><g transform="translate(27.744799, 51.937606)"><g><path d="M 0.140625 -2.9375 C 0.140625 -2.457031 0.0507812 -2.039062 -0.125 -1.6875 C -0.300781 -1.332031 -0.5625 -1.054688 -0.90625 -0.859375 C -1.25 -0.671875 -1.660156 -0.578125 -2.140625 -0.578125 C -2.585938 -0.578125 -2.960938 -0.671875 -3.265625 -0.859375 C -3.566406 -1.054688 -3.816406 -1.351562 -4.015625 -1.75 C -4.210938 -2.15625 -4.363281 -2.679688 -4.46875 -3.328125 C -4.539062 -3.773438 -4.617188 -4.113281 -4.703125 -4.34375 C -4.785156 -4.582031 -4.878906 -4.742188 -4.984375 -4.828125 C -5.097656 -4.910156 -5.242188 -4.953125 -5.421875 -4.953125 C -5.660156 -4.953125 -5.84375 -4.863281 -5.96875 -4.6875 C -6.09375 -4.519531 -6.15625 -4.242188 -6.15625 -3.859375 C -6.15625 -3.441406 -6.0625 -3.039062 -5.875 -2.65625 C -5.6875 -2.28125 -5.441406 -1.953125 -5.140625 -1.671875 L -5.140625 -1.53125 L -6.34375 -0.75 C -6.757812 -1.125 -7.085938 -1.585938 -7.328125 -2.140625 C -7.566406 -2.691406 -7.6875 -3.296875 -7.6875 -3.953125 C -7.6875 -4.953125 -7.472656 -5.671875 -7.046875 -6.109375 C -6.617188 -6.554688 -6.019531 -6.78125 -5.25 -6.78125 L -1.96875 -6.78125 C -1.632812 -6.78125 -1.46875 -6.929688 -1.46875 -7.234375 C -1.46875 -7.347656 -1.488281 -7.457031 -1.53125 -7.5625 L -1.5 -7.65625 L -0.171875 -7.796875 C -0.109375 -7.691406 -0.0507812 -7.546875 0 -7.359375 C 0.0390625 -7.171875 0.0625 -6.96875 0.0625 -6.75 C 0.0625 -6.300781 -0.0234375 -5.945312 -0.203125 -5.6875 C -0.378906 -5.4375 -0.648438 -5.253906 -1.015625 -5.140625 L -1.03125 -5 C -0.25 -4.632812 0.140625 -3.945312 0.140625 -2.9375 Z M -1.265625 -3.546875 C -1.265625 -3.984375 -1.410156 -4.332031 -1.703125 -4.59375 C -2.003906 -4.851562 -2.414062 -4.984375 -2.9375 -4.984375 L -3.703125 -4.984375 L -3.734375 -4.859375 C -3.640625 -4.742188 -3.5625 -4.59375 -3.5 -4.40625 C -3.4375 -4.21875 -3.378906 -3.953125 -3.328125 -3.609375 C -3.253906 -3.203125 -3.132812 -2.90625 -2.96875 -2.71875 C -2.800781 -2.539062 -2.566406 -2.453125 -2.265625 -2.453125 C -1.941406 -2.453125 -1.691406 -2.546875 -1.515625 -2.734375 C -1.347656 -2.929688 -1.265625 -3.203125 -1.265625 -3.546875 Z M -1.265625 -3.546875 "/></g></g></g><g fill="#ffffff" fill-opacity="1"><g transform="translate(27.744799, 44.411846)"><g><path d="M 0.140625 -3.125 C 0.140625 -2.445312 -0.0390625 -1.929688 -0.40625 -1.578125 C -0.769531 -1.222656 -1.328125 -1.046875 -2.078125 -1.046875 L -10.5625 -1.046875 L -10.5625 -2.9375 L -2.15625 -2.9375 C -1.695312 -2.9375 -1.46875 -3.125 -1.46875 -3.5 C -1.46875 -3.613281 -1.484375 -3.734375 -1.515625 -3.859375 L -1.484375 -3.953125 L -0.03125 -4.125 C 0.0195312 -4.019531 0.0625 -3.878906 0.09375 -3.703125 C 0.125 -3.535156 0.140625 -3.34375 0.140625 -3.125 Z M 0.140625 -3.125 "/></g></g></g><g fill="#ffffff" fill-opacity="1"><g transform="translate(27.744799, 40.500278)"><g><path d="M 0.140625 -2.9375 C 0.140625 -2.457031 0.0507812 -2.039062 -0.125 -1.6875 C -0.300781 -1.332031 -0.5625 -1.054688 -0.90625 -0.859375 C -1.25 -0.671875 -1.660156 -0.578125 -2.140625 -0.578125 C -2.585938 -0.578125 -2.960938 -0.671875 -3.265625 -0.859375 C -3.566406 -1.054688 -3.816406 -1.351562 -4.015625 -1.75 C -4.210938 -2.15625 -4.363281 -2.679688 -4.46875 -3.328125 C -4.539062 -3.773438 -4.617188 -4.113281 -4.703125 -4.34375 C -4.785156 -4.582031 -4.878906 -4.742188 -4.984375 -4.828125 C -5.097656 -4.910156 -5.242188 -4.953125 -5.421875 -4.953125 C -5.660156 -4.953125 -5.84375 -4.863281 -5.96875 -4.6875 C -6.09375 -4.519531 -6.15625 -4.242188 -6.15625 -3.859375 C -6.15625 -3.441406 -6.0625 -3.039062 -5.875 -2.65625 C -5.6875 -2.28125 -5.441406 -1.953125 -5.140625 -1.671875 L -5.140625 -1.53125 L -6.34375 -0.75 C -6.757812 -1.125 -7.085938 -1.585938 -7.328125 -2.140625 C -7.566406 -2.691406 -7.6875 -3.296875 -7.6875 -3.953125 C -7.6875 -4.953125 -7.472656 -5.671875 -7.046875 -6.109375 C -6.617188 -6.554688 -6.019531 -6.78125 -5.25 -6.78125 L -1.96875 -6.78125 C -1.632812 -6.78125 -1.46875 -6.929688 -1.46875 -7.234375 C -1.46875 -7.347656 -1.488281 -7.457031 -1.53125 -7.5625 L -1.5 -7.65625 L -0.171875 -7.796875 C -0.109375 -7.691406 -0.0507812 -7.546875 0 -7.359375 C 0.0390625 -7.171875 0.0625 -6.96875 0.0625 -6.75 C 0.0625 -6.300781 -0.0234375 -5.945312 -0.203125 -5.6875 C -0.378906 -5.4375 -0.648438 -5.253906 -1.015625 -5.140625 L -1.03125 -5 C -0.25 -4.632812 0.140625 -3.945312 0.140625 -2.9375 Z M -1.265625 -3.546875 C -1.265625 -3.984375 -1.410156 -4.332031 -1.703125 -4.59375 C -2.003906 -4.851562 -2.414062 -4.984375 -2.9375 -4.984375 L -3.703125 -4.984375 L -3.734375 -4.859375 C -3.640625 -4.742188 -3.5625 -4.59375 -3.5 -4.40625 C -3.4375 -4.21875 -3.378906 -3.953125 -3.328125 -3.609375 C -3.253906 -3.203125 -3.132812 -2.90625 -2.96875 -2.71875 C -2.800781 -2.539062 -2.566406 -2.453125 -2.265625 -2.453125 C -1.941406 -2.453125 -1.691406 -2.546875 -1.515625 -2.734375 C -1.347656 -2.929688 -1.265625 -3.203125 -1.265625 -3.546875 Z M -1.265625 -3.546875 "/></g></g></g><g fill="#ffffff" fill-opacity="1"><g transform="translate(27.744799, 32.974518)"><g><path d="M 0 -1.09375 L -7.546875 -1.09375 L -7.546875 -2.921875 L -6.421875 -2.921875 L -6.390625 -3.0625 C -6.804688 -3.25 -7.113281 -3.488281 -7.3125 -3.78125 C -7.507812 -4.082031 -7.609375 -4.445312 -7.609375 -4.875 C -7.609375 -5.300781 -7.535156 -5.625 -7.390625 -5.84375 L -5.75 -5.53125 L -5.734375 -5.375 C -5.773438 -5.257812 -5.804688 -5.144531 -5.828125 -5.03125 C -5.859375 -4.914062 -5.875 -4.773438 -5.875 -4.609375 C -5.875 -4.078125 -5.6875 -3.671875 -5.3125 -3.390625 C -4.945312 -3.117188 -4.351562 -2.984375 -3.53125 -2.984375 L 0 -2.984375 Z M 0 -1.09375 "/></g></g></g><g fill="#ffffff" fill-opacity="1"><g transform="translate(27.744799, 27.48473)"><g><path d="M -8.4375 -2.03125 C -8.4375 -1.6875 -8.539062 -1.40625 -8.75 -1.1875 C -8.957031 -0.976562 -9.226562 -0.875 -9.5625 -0.875 C -9.882812 -0.875 -10.148438 -0.976562 -10.359375 -1.1875 C -10.566406 -1.40625 -10.671875 -1.6875 -10.671875 -2.03125 C -10.671875 -2.257812 -10.617188 -2.460938 -10.515625 -2.640625 C -10.421875 -2.816406 -10.289062 -2.953125 -10.125 -3.046875 C -9.957031 -3.148438 -9.769531 -3.203125 -9.5625 -3.203125 C -9.34375 -3.203125 -9.148438 -3.148438 -8.984375 -3.046875 C -8.816406 -2.953125 -8.679688 -2.816406 -8.578125 -2.640625 C -8.484375 -2.460938 -8.4375 -2.257812 -8.4375 -2.03125 Z M 0 -1.09375 L -7.546875 -1.09375 L -7.546875 -2.984375 L 0 -2.984375 Z M 0 -1.09375 "/></g></g></g><g fill="#ffffff" fill-opacity="1"><g transform="translate(27.744799, 23.846448)"><g/></g></g><g fill="#ffffff" fill-opacity="1"><g transform="translate(27.744799, 20.966531)"><g><path d="M 0 -5.1875 L 0 -2.9375 L -7.546875 -0.140625 L -7.546875 -2.125 L -2.171875 -4 L -2.171875 -4.15625 L -7.546875 -6.03125 L -7.546875 -7.96875 Z M 0 -5.1875 "/></g></g></g><g fill="#ffffff" fill-opacity="1"><g transform="translate(27.744799, 13.283626)"><g><path d="M 0.140625 -2.9375 C 0.140625 -2.457031 0.0507812 -2.039062 -0.125 -1.6875 C -0.300781 -1.332031 -0.5625 -1.054688 -0.90625 -0.859375 C -1.25 -0.671875 -1.660156 -0.578125 -2.140625 -0.578125 C -2.585938 -0.578125 -2.960938 -0.671875 -3.265625 -0.859375 C -3.566406 -1.054688 -3.816406 -1.351562 -4.015625 -1.75 C -4.210938 -2.15625 -4.363281 -2.679688 -4.46875 -3.328125 C -4.539062 -3.773438 -4.617188 -4.113281 -4.703125 -4.34375 C -4.785156 -4.582031 -4.878906 -4.742188 -4.984375 -4.828125 C -5.097656 -4.910156 -5.242188 -4.953125 -5.421875 -4.953125 C -5.660156 -4.953125 -5.84375 -4.863281 -5.96875 -4.6875 C -6.09375 -4.519531 -6.15625 -4.242188 -6.15625 -3.859375 C -6.15625 -3.441406 -6.0625 -3.039062 -5.875 -2.65625 C -5.6875 -2.28125 -5.441406 -1.953125 -5.140625 -1.671875 L -5.140625 -1.53125 L -6.34375 -0.75 C -6.757812 -1.125 -7.085938 -1.585938 -7.328125 -2.140625 C -7.566406 -2.691406 -7.6875 -3.296875 -7.6875 -3.953125 C -7.6875 -4.953125 -7.472656 -5.671875 -7.046875 -6.109375 C -6.617188 -6.554688 -6.019531 -6.78125 -5.25 -6.78125 L -1.96875 -6.78125 C -1.632812 -6.78125 -1.46875 -6.929688 -1.46875 -7.234375 C -1.46875 -7.347656 -1.488281 -7.457031 -1.53125 -7.5625 L -1.5 -7.65625 L -0.171875 -7.796875 C -0.109375 -7.691406 -0.0507812 -7.546875 0 -7.359375 C 0.0390625 -7.171875 0.0625 -6.96875 0.0625 -6.75 C 0.0625 -6.300781 -0.0234375 -5.945312 -0.203125 -5.6875 C -0.378906 -5.4375 -0.648438 -5.253906 -1.015625 -5.140625 L -1.03125 -5 C -0.25 -4.632812 0.140625 -3.945312 0.140625 -2.9375 Z M -1.265625 -3.546875 C -1.265625 -3.984375 -1.410156 -4.332031 -1.703125 -4.59375 C -2.003906 -4.851562 -2.414062 -4.984375 -2.9375 -4.984375 L -3.703125 -4.984375 L -3.734375 -4.859375 C -3.640625 -4.742188 -3.5625 -4.59375 -3.5 -4.40625 C -3.4375 -4.21875 -3.378906 -3.953125 -3.328125 -3.609375 C -3.253906 -3.203125 -3.132812 -2.90625 -2.96875 -2.71875 C -2.800781 -2.539062 -2.566406 -2.453125 -2.265625 -2.453125 C -1.941406 -2.453125 -1.691406 -2.546875 -1.515625 -2.734375 C -1.347656 -2.929688 -1.265625 -3.203125 -1.265625 -3.546875 Z M -1.265625 -3.546875 "/></g></g></g><g fill="#ffffff" fill-opacity="1"><g transform="translate(56.244797, 107.38199)"><g><path d="M 0 -3.109375 L 0 -1.296875 L -10 -1.296875 L -10 -3.890625 L -2.640625 -6.40625 L -2.640625 -6.5625 L -10 -9.078125 L -10 -11.59375 L 0 -11.59375 L 0 -9.71875 L -6.609375 -9.71875 L -6.625 -9.546875 L 0 -7.234375 L 0 -5.59375 L -6.625 -3.28125 L -6.609375 -3.109375 Z M 0 -3.109375 "/></g></g></g><g fill="#ffffff" fill-opacity="1"><g transform="translate(56.244797, 94.909771)"><g><path d="M 0.140625 -2.9375 C 0.140625 -2.457031 0.0507812 -2.039062 -0.125 -1.6875 C -0.300781 -1.332031 -0.5625 -1.054688 -0.90625 -0.859375 C -1.25 -0.671875 -1.660156 -0.578125 -2.140625 -0.578125 C -2.585938 -0.578125 -2.960938 -0.671875 -3.265625 -0.859375 C -3.566406 -1.054688 -3.816406 -1.351562 -4.015625 -1.75 C -4.210938 -2.15625 -4.363281 -2.679688 -4.46875 -3.328125 C -4.539062 -3.773438 -4.617188 -4.113281 -4.703125 -4.34375 C -4.785156 -4.582031 -4.878906 -4.742188 -4.984375 -4.828125 C -5.097656 -4.910156 -5.242188 -4.953125 -5.421875 -4.953125 C -5.660156 -4.953125 -5.84375 -4.863281 -5.96875 -4.6875 C -6.09375 -4.519531 -6.15625 -4.242188 -6.15625 -3.859375 C -6.15625 -3.441406 -6.0625 -3.039062 -5.875 -2.65625 C -5.6875 -2.28125 -5.441406 -1.953125 -5.140625 -1.671875 L -5.140625 -1.53125 L -6.34375 -0.75 C -6.757812 -1.125 -7.085938 -1.585938 -7.328125 -2.140625 C -7.566406 -2.691406 -7.6875 -3.296875 -7.6875 -3.953125 C -7.6875 -4.953125 -7.472656 -5.671875 -7.046875 -6.109375 C -6.617188 -6.554688 -6.019531 -6.78125 -5.25 -6.78125 L -1.96875 -6.78125 C -1.632812 -6.78125 -1.46875 -6.929688 -1.46875 -7.234375 C -1.46875 -7.347656 -1.488281 -7.457031 -1.53125 -7.5625 L -1.5 -7.65625 L -0.171875 -7.796875 C -0.109375 -7.691406 -0.0507812 -7.546875 0 -7.359375 C 0.0390625 -7.171875 0.0625 -6.96875 0.0625 -6.75 C 0.0625 -6.300781 -0.0234375 -5.945312 -0.203125 -5.6875 C -0.378906 -5.4375 -0.648438 -5.253906 -1.015625 -5.140625 L -1.03125 -5 C -0.25 -4.632812 0.140625 -3.945312 0.140625 -2.9375 Z M -1.265625 -3.546875 C -1.265625 -3.984375 -1.410156 -4.332031 -1.703125 -4.59375 C -2.003906 -4.851562 -2.414062 -4.984375 -2.9375 -4.984375 L -3.703125 -4.984375 L -3.734375 -4.859375 C -3.640625 -4.742188 -3.5625 -4.59375 -3.5 -4.40625 C -3.4375 -4.21875 -3.378906 -3.953125 -3.328125 -3.609375 C -3.253906 -3.203125 -3.132812 -2.90625 -2.96875 -2.71875 C -2.800781 -2.539062 -2.566406 -2.453125 -2.265625 -2.453125 C -1.941406 -2.453125 -1.691406 -2.546875 -1.515625 -2.734375 C -1.347656 -2.929688 -1.265625 -3.203125 -1.265625 -3.546875 Z M -1.265625 -3.546875 "/></g></g></g><g fill="#ffffff" fill-opacity="1"><g transform="translate(56.244797, 87.38401)"><g><path d="M -6.5 -0.328125 C -6.726562 -0.742188 -6.988281 -1.09375 -7.28125 -1.375 C -7.582031 -1.664062 -7.890625 -1.828125 -8.203125 -1.859375 C -8.210938 -1.515625 -8.316406 -1.242188 -8.515625 -1.046875 C -8.722656 -0.847656 -8.984375 -0.75 -9.296875 -0.75 C -9.515625 -0.75 -9.707031 -0.796875 -9.875 -0.890625 C -10.039062 -0.984375 -10.171875 -1.117188 -10.265625 -1.296875 C -10.367188 -1.472656 -10.421875 -1.679688 -10.421875 -1.921875 C -10.421875 -2.285156 -10.289062 -2.578125 -10.03125 -2.796875 C -9.78125 -3.015625 -9.425781 -3.125 -8.96875 -3.125 C -8.207031 -3.125 -7.554688 -2.921875 -7.015625 -2.515625 C -6.472656 -2.117188 -6.007812 -1.570312 -5.625 -0.875 Z M -6.5 -0.328125 "/></g></g></g><g fill="#ffffff" fill-opacity="1"><g transform="translate(56.244797, 84.005347)"><g><path d="M 0 -1.09375 L -7.546875 -1.09375 L -7.546875 -2.921875 L -6.421875 -2.921875 L -6.390625 -3.0625 C -6.804688 -3.25 -7.113281 -3.488281 -7.3125 -3.78125 C -7.507812 -4.082031 -7.609375 -4.445312 -7.609375 -4.875 C -7.609375 -5.300781 -7.535156 -5.625 -7.390625 -5.84375 L -5.75 -5.53125 L -5.734375 -5.375 C -5.773438 -5.257812 -5.804688 -5.144531 -5.828125 -5.03125 C -5.859375 -4.914062 -5.875 -4.773438 -5.875 -4.609375 C -5.875 -4.078125 -5.6875 -3.671875 -5.3125 -3.390625 C -4.945312 -3.117188 -4.351562 -2.984375 -3.53125 -2.984375 L 0 -2.984375 Z M 0 -1.09375 "/></g></g></g><g fill="#ffffff" fill-opacity="1"><g transform="translate(56.244797, 78.515557)"><g><path d="M 0.140625 -3.453125 C 0.140625 -2.609375 -0.0859375 -1.984375 -0.546875 -1.578125 C -1.015625 -1.171875 -1.679688 -0.96875 -2.546875 -0.96875 L -7.546875 -0.96875 L -7.546875 -2.859375 L -2.78125 -2.859375 C -2.320312 -2.859375 -1.984375 -2.957031 -1.765625 -3.15625 C -1.554688 -3.351562 -1.453125 -3.660156 -1.453125 -4.078125 C -1.453125 -4.609375 -1.625 -5.019531 -1.96875 -5.3125 C -2.3125 -5.601562 -2.851562 -5.75 -3.59375 -5.75 L -7.546875 -5.75 L -7.546875 -7.640625 L 0 -7.640625 L 0 -5.8125 L -1.109375 -5.8125 L -1.140625 -5.671875 C -0.710938 -5.429688 -0.390625 -5.132812 -0.171875 -4.78125 C 0.0351562 -4.4375 0.140625 -3.992188 0.140625 -3.453125 Z M 0.140625 -3.453125 "/></g></g></g><g fill="#ffffff" fill-opacity="1"><g transform="translate(56.244797, 70.217765)"><g><path d="M 0 -6.328125 L 0 -0.390625 L -1.5625 -0.390625 L -5.90625 -4.046875 L -6.046875 -4 L -6.046875 -0.5625 L -7.546875 -0.5625 L -7.546875 -6.28125 L -5.984375 -6.28125 L -1.640625 -2.625 L -1.5 -2.671875 L -1.5 -6.328125 Z M 0 -6.328125 "/></g></g></g><g fill="#ffffff" fill-opacity="1"><g transform="translate(56.244797, 63.914951)"><g><path d="M 0.140625 -2.9375 C 0.140625 -2.457031 0.0507812 -2.039062 -0.125 -1.6875 C -0.300781 -1.332031 -0.5625 -1.054688 -0.90625 -0.859375 C -1.25 -0.671875 -1.660156 -0.578125 -2.140625 -0.578125 C -2.585938 -0.578125 -2.960938 -0.671875 -3.265625 -0.859375 C -3.566406 -1.054688 -3.816406 -1.351562 -4.015625 -1.75 C -4.210938 -2.15625 -4.363281 -2.679688 -4.46875 -3.328125 C -4.539062 -3.773438 -4.617188 -4.113281 -4.703125 -4.34375 C -4.785156 -4.582031 -4.878906 -4.742188 -4.984375 -4.828125 C -5.097656 -4.910156 -5.242188 -4.953125 -5.421875 -4.953125 C -5.660156 -4.953125 -5.84375 -4.863281 -5.96875 -4.6875 C -6.09375 -4.519531 -6.15625 -4.242188 -6.15625 -3.859375 C -6.15625 -3.441406 -6.0625 -3.039062 -5.875 -2.65625 C -5.6875 -2.28125 -5.441406 -1.953125 -5.140625 -1.671875 L -5.140625 -1.53125 L -6.34375 -0.75 C -6.757812 -1.125 -7.085938 -1.585938 -7.328125 -2.140625 C -7.566406 -2.691406 -7.6875 -3.296875 -7.6875 -3.953125 C -7.6875 -4.953125 -7.472656 -5.671875 -7.046875 -6.109375 C -6.617188 -6.554688 -6.019531 -6.78125 -5.25 -6.78125 L -1.96875 -6.78125 C -1.632812 -6.78125 -1.46875 -6.929688 -1.46875 -7.234375 C -1.46875 -7.347656 -1.488281 -7.457031 -1.53125 -7.5625 L -1.5 -7.65625 L -0.171875 -7.796875 C -0.109375 -7.691406 -0.0507812 -7.546875 0 -7.359375 C 0.0390625 -7.171875 0.0625 -6.96875 0.0625 -6.75 C 0.0625 -6.300781 -0.0234375 -5.945312 -0.203125 -5.6875 C -0.378906 -5.4375 -0.648438 -5.253906 -1.015625 -5.140625 L -1.03125 -5 C -0.25 -4.632812 0.140625 -3.945312 0.140625 -2.9375 Z M -1.265625 -3.546875 C -1.265625 -3.984375 -1.410156 -4.332031 -1.703125 -4.59375 C -2.003906 -4.851562 -2.414062 -4.984375 -2.9375 -4.984375 L -3.703125 -4.984375 L -3.734375 -4.859375 C -3.640625 -4.742188 -3.5625 -4.59375 -3.5 -4.40625 C -3.4375 -4.21875 -3.378906 -3.953125 -3.328125 -3.609375 C -3.253906 -3.203125 -3.132812 -2.90625 -2.96875 -2.71875 C -2.800781 -2.539062 -2.566406 -2.453125 -2.265625 -2.453125 C -1.941406 -2.453125 -1.691406 -2.546875 -1.515625 -2.734375 C -1.347656 -2.929688 -1.265625 -3.203125 -1.265625 -3.546875 Z M -1.265625 -3.546875 "/></g></g></g><g fill="#ffffff" fill-opacity="1"><g transform="translate(56.244797, 56.389191)"><g/></g></g><g fill="#ffffff" fill-opacity="1"><g transform="translate(56.244797, 53.509274)"><g><path d="M 0 -6.328125 L 0 -0.390625 L -1.5625 -0.390625 L -5.90625 -4.046875 L -6.046875 -4 L -6.046875 -0.5625 L -7.546875 -0.5625 L -7.546875 -6.28125 L -5.984375 -6.28125 L -1.640625 -2.625 L -1.5 -2.671875 L -1.5 -6.328125 Z M 0 -6.328125 "/></g></g></g><g fill="#ffffff" fill-opacity="1"><g transform="translate(56.244797, 47.206464)"><g><path d="M 0.140625 -2.9375 C 0.140625 -2.457031 0.0507812 -2.039062 -0.125 -1.6875 C -0.300781 -1.332031 -0.5625 -1.054688 -0.90625 -0.859375 C -1.25 -0.671875 -1.660156 -0.578125 -2.140625 -0.578125 C -2.585938 -0.578125 -2.960938 -0.671875 -3.265625 -0.859375 C -3.566406 -1.054688 -3.816406 -1.351562 -4.015625 -1.75 C -4.210938 -2.15625 -4.363281 -2.679688 -4.46875 -3.328125 C -4.539062 -3.773438 -4.617188 -4.113281 -4.703125 -4.34375 C -4.785156 -4.582031 -4.878906 -4.742188 -4.984375 -4.828125 C -5.097656 -4.910156 -5.242188 -4.953125 -5.421875 -4.953125 C -5.660156 -4.953125 -5.84375 -4.863281 -5.96875 -4.6875 C -6.09375 -4.519531 -6.15625 -4.242188 -6.15625 -3.859375 C -6.15625 -3.441406 -6.0625 -3.039062 -5.875 -2.65625 C -5.6875 -2.28125 -5.441406 -1.953125 -5.140625 -1.671875 L -5.140625 -1.53125 L -6.34375 -0.75 C -6.757812 -1.125 -7.085938 -1.585938 -7.328125 -2.140625 C -7.566406 -2.691406 -7.6875 -3.296875 -7.6875 -3.953125 C -7.6875 -4.953125 -7.472656 -5.671875 -7.046875 -6.109375 C -6.617188 -6.554688 -6.019531 -6.78125 -5.25 -6.78125 L -1.96875 -6.78125 C -1.632812 -6.78125 -1.46875 -6.929688 -1.46875 -7.234375 C -1.46875 -7.347656 -1.488281 -7.457031 -1.53125 -7.5625 L -1.5 -7.65625 L -0.171875 -7.796875 C -0.109375 -7.691406 -0.0507812 -7.546875 0 -7.359375 C 0.0390625 -7.171875 0.0625 -6.96875 0.0625 -6.75 C 0.0625 -6.300781 -0.0234375 -5.945312 -0.203125 -5.6875 C -0.378906 -5.4375 -0.648438 -5.253906 -1.015625 -5.140625 L -1.03125 -5 C -0.25 -4.632812 0.140625 -3.945312 0.140625 -2.9375 Z M -1.265625 -3.546875 C -1.265625 -3.984375 -1.410156 -4.332031 -1.703125 -4.59375 C -2.003906 -4.851562 -2.414062 -4.984375 -2.9375 -4.984375 L -3.703125 -4.984375 L -3.734375 -4.859375 C -3.640625 -4.742188 -3.5625 -4.59375 -3.5 -4.40625 C -3.4375 -4.21875 -3.378906 -3.953125 -3.328125 -3.609375 C -3.253906 -3.203125 -3.132812 -2.90625 -2.96875 -2.71875 C -2.800781 -2.539062 -2.566406 -2.453125 -2.265625 -2.453125 C -1.941406 -2.453125 -1.691406 -2.546875 -1.515625 -2.734375 C -1.347656 -2.929688 -1.265625 -3.203125 -1.265625 -3.546875 Z M -1.265625 -3.546875 "/></g></g></g><g fill="#ffffff" fill-opacity="1"><g transform="translate(56.244797, 39.680704)"><g><path d="M 0.140625 -3.125 C 0.140625 -2.445312 -0.0390625 -1.929688 -0.40625 -1.578125 C -0.769531 -1.222656 -1.328125 -1.046875 -2.078125 -1.046875 L -10.5625 -1.046875 L -10.5625 -2.9375 L -2.15625 -2.9375 C -1.695312 -2.9375 -1.46875 -3.125 -1.46875 -3.5 C -1.46875 -3.613281 -1.484375 -3.734375 -1.515625 -3.859375 L -1.484375 -3.953125 L -0.03125 -4.125 C 0.0195312 -4.019531 0.0625 -3.878906 0.09375 -3.703125 C 0.125 -3.535156 0.140625 -3.34375 0.140625 -3.125 Z M 0.140625 -3.125 "/></g></g></g><g fill="#ffffff" fill-opacity="1"><g transform="translate(56.244797, 35.769136)"><g><path d="M 0.140625 -3.125 C 0.140625 -2.445312 -0.0390625 -1.929688 -0.40625 -1.578125 C -0.769531 -1.222656 -1.328125 -1.046875 -2.078125 -1.046875 L -10.5625 -1.046875 L -10.5625 -2.9375 L -2.15625 -2.9375 C -1.695312 -2.9375 -1.46875 -3.125 -1.46875 -3.5 C -1.46875 -3.613281 -1.484375 -3.734375 -1.515625 -3.859375 L -1.484375 -3.953125 L -0.03125 -4.125 C 0.0195312 -4.019531 0.0625 -3.878906 0.09375 -3.703125 C 0.125 -3.535156 0.140625 -3.34375 0.140625 -3.125 Z M 0.140625 -3.125 "/></g></g></g><g fill="#ffffff" fill-opacity="1"><g transform="translate(56.244797, 31.857569)"><g><path d="M 0.140625 -2.9375 C 0.140625 -2.457031 0.0507812 -2.039062 -0.125 -1.6875 C -0.300781 -1.332031 -0.5625 -1.054688 -0.90625 -0.859375 C -1.25 -0.671875 -1.660156 -0.578125 -2.140625 -0.578125 C -2.585938 -0.578125 -2.960938 -0.671875 -3.265625 -0.859375 C -3.566406 -1.054688 -3.816406 -1.351562 -4.015625 -1.75 C -4.210938 -2.15625 -4.363281 -2.679688 -4.46875 -3.328125 C -4.539062 -3.773438 -4.617188 -4.113281 -4.703125 -4.34375 C -4.785156 -4.582031 -4.878906 -4.742188 -4.984375 -4.828125 C -5.097656 -4.910156 -5.242188 -4.953125 -5.421875 -4.953125 C -5.660156 -4.953125 -5.84375 -4.863281 -5.96875 -4.6875 C -6.09375 -4.519531 -6.15625 -4.242188 -6.15625 -3.859375 C -6.15625 -3.441406 -6.0625 -3.039062 -5.875 -2.65625 C -5.6875 -2.28125 -5.441406 -1.953125 -5.140625 -1.671875 L -5.140625 -1.53125 L -6.34375 -0.75 C -6.757812 -1.125 -7.085938 -1.585938 -7.328125 -2.140625 C -7.566406 -2.691406 -7.6875 -3.296875 -7.6875 -3.953125 C -7.6875 -4.953125 -7.472656 -5.671875 -7.046875 -6.109375 C -6.617188 -6.554688 -6.019531 -6.78125 -5.25 -6.78125 L -1.96875 -6.78125 C -1.632812 -6.78125 -1.46875 -6.929688 -1.46875 -7.234375 C -1.46875 -7.347656 -1.488281 -7.457031 -1.53125 -7.5625 L -1.5 -7.65625 L -0.171875 -7.796875 C -0.109375 -7.691406 -0.0507812 -7.546875 0 -7.359375 C 0.0390625 -7.171875 0.0625 -6.96875 0.0625 -6.75 C 0.0625 -6.300781 -0.0234375 -5.945312 -0.203125 -5.6875 C -0.378906 -5.4375 -0.648438 -5.253906 -1.015625 -5.140625 L -1.03125 -5 C -0.25 -4.632812 0.140625 -3.945312 0.140625 -2.9375 Z M -1.265625 -3.546875 C -1.265625 -3.984375 -1.410156 -4.332031 -1.703125 -4.59375 C -2.003906 -4.851562 -2.414062 -4.984375 -2.9375 -4.984375 L -3.703125 -4.984375 L -3.734375 -4.859375 C -3.640625 -4.742188 -3.5625 -4.59375 -3.5 -4.40625 C -3.4375 -4.21875 -3.378906 -3.953125 -3.328125 -3.609375 C -3.253906 -3.203125 -3.132812 -2.90625 -2.96875 -2.71875 C -2.800781 -2.539062 -2.566406 -2.453125 -2.265625 -2.453125 C -1.941406 -2.453125 -1.691406 -2.546875 -1.515625 -2.734375 C -1.347656 -2.929688 -1.265625 -3.203125 -1.265625 -3.546875 Z M -1.265625 -3.546875 "/></g></g></g><g fill="#ffffff" fill-opacity="1"><g transform="translate(56.244797, 24.331809)"><g><path d="M 0 -1.09375 L -7.546875 -1.09375 L -7.546875 -2.921875 L -6.421875 -2.921875 L -6.390625 -3.0625 C -6.804688 -3.25 -7.113281 -3.488281 -7.3125 -3.78125 C -7.507812 -4.082031 -7.609375 -4.445312 -7.609375 -4.875 C -7.609375 -5.300781 -7.535156 -5.625 -7.390625 -5.84375 L -5.75 -5.53125 L -5.734375 -5.375 C -5.773438 -5.257812 -5.804688 -5.144531 -5.828125 -5.03125 C -5.859375 -4.914062 -5.875 -4.773438 -5.875 -4.609375 C -5.875 -4.078125 -5.6875 -3.671875 -5.3125 -3.390625 C -4.945312 -3.117188 -4.351562 -2.984375 -3.53125 -2.984375 L 0 -2.984375 Z M 0 -1.09375 "/></g></g></g><g fill="#ffffff" fill-opacity="1"><g transform="translate(56.244797, 18.842021)"><g><path d="M -8.4375 -2.03125 C -8.4375 -1.6875 -8.539062 -1.40625 -8.75 -1.1875 C -8.957031 -0.976562 -9.226562 -0.875 -9.5625 -0.875 C -9.882812 -0.875 -10.148438 -0.976562 -10.359375 -1.1875 C -10.566406 -1.40625 -10.671875 -1.6875 -10.671875 -2.03125 C -10.671875 -2.257812 -10.617188 -2.460938 -10.515625 -2.640625 C -10.421875 -2.816406 -10.289062 -2.953125 -10.125 -3.046875 C -9.957031 -3.148438 -9.769531 -3.203125 -9.5625 -3.203125 C -9.34375 -3.203125 -9.148438 -3.148438 -8.984375 -3.046875 C -8.816406 -2.953125 -8.679688 -2.816406 -8.578125 -2.640625 C -8.484375 -2.460938 -8.4375 -2.257812 -8.4375 -2.03125 Z M 0 -1.09375 L -7.546875 -1.09375 L -7.546875 -2.984375 L 0 -2.984375 Z M 0 -1.09375 "/></g></g></g></svg>