<svg xmlns="http://www.w3.org/2000/svg" xmlns:xlink="http://www.w3.org/1999/xlink" width="2048" zoomAndPan="magnify" viewBox="0 0 1536 527.249983" height="703" preserveAspectRatio="xMidYMid meet" version="1.0"><defs><g/><clipPath id="51bb423839"><path d="M 16.359375 14.414062 L 172.402344 14.414062 L 172.402344 162.585938 L 16.359375 162.585938 Z M 16.359375 14.414062 " clip-rule="nonzero"/></clipPath><clipPath id="ab61f2d100"><path d="M 197.382812 14.414062 L 339.910156 14.414062 L 339.910156 373 L 197.382812 373 Z M 197.382812 14.414062 " clip-rule="nonzero"/></clipPath><clipPath id="e9c30a30f3"><path d="M 197.382812 14.414062 L 523.855469 14.414062 L 523.855469 230.5625 L 197.382812 230.5625 Z M 197.382812 14.414062 " clip-rule="nonzero"/></clipPath><clipPath id="abef6a0bf7"><path d="M 16.359375 187.628906 L 172.402344 187.628906 L 172.402344 512 L 16.359375 512 Z M 16.359375 187.628906 " clip-rule="nonzero"/></clipPath><clipPath id="d48b826b8f"><path d="M 368.859375 254.472656 L 523.855469 254.472656 L 523.855469 512 L 368.859375 512 Z M 368.859375 254.472656 " clip-rule="nonzero"/></clipPath><clipPath id="72b9a1ff66"><path d="M 16.359375 401.171875 L 523.855469 401.171875 L 523.855469 512.085938 L 16.359375 512.085938 Z M 16.359375 401.171875 " clip-rule="nonzero"/></clipPath></defs><g clip-path="url(#51bb423839)"><path fill="#ffffff" d="M 16.359375 14.414062 L 172.636719 14.414062 L 172.636719 162.585938 L 16.359375 162.585938 Z M 16.359375 14.414062 " fill-opacity="1" fill-rule="nonzero"/></g><g clip-path="url(#ab61f2d100)"><path fill="#ffffff" d="M 197.382812 14.414062 L 339.910156 14.414062 L 339.910156 372.957031 L 197.382812 372.957031 Z M 197.382812 14.414062 " fill-opacity="1" fill-rule="nonzero"/></g><g clip-path="url(#e9c30a30f3)"><path fill="#ffffff" d="M 197.382812 14.414062 L 524.136719 14.414062 L 524.136719 230.5625 L 197.382812 230.5625 Z M 197.382812 14.414062 " fill-opacity="1" fill-rule="nonzero"/></g><g clip-path="url(#abef6a0bf7)"><path fill="#ffffff" d="M 16.359375 187.628906 L 172.402344 187.628906 L 172.402344 511.902344 L 16.359375 511.902344 Z M 16.359375 187.628906 " fill-opacity="1" fill-rule="nonzero"/></g><g clip-path="url(#d48b826b8f)"><path fill="#ffffff" d="M 368.859375 254.472656 L 523.855469 254.472656 L 523.855469 511.792969 L 368.859375 511.792969 Z M 368.859375 254.472656 " fill-opacity="1" fill-rule="nonzero"/></g><g clip-path="url(#72b9a1ff66)"><path fill="#ffffff" d="M 16.359375 401.171875 L 523.699219 401.171875 L 523.699219 512.085938 L 16.359375 512.085938 Z M 16.359375 401.171875 " fill-opacity="1" fill-rule="nonzero"/></g><g fill="#ffffff" fill-opacity="1"><g transform="translate(549.680313, 134.953448)"><g><path d="M 11.203125 -135.796875 L 28.859375 -135.796875 C 30.671875 -135.796875 31.578125 -134.890625 31.578125 -133.078125 L 31.578125 -2.71875 C 31.578125 -0.90625 30.671875 0 28.859375 0 L 11.203125 0 C 9.390625 0 8.484375 -0.90625 8.484375 -2.71875 L 8.484375 -133.078125 C 8.484375 -134.890625 9.390625 -135.796875 11.203125 -135.796875 Z M 11.203125 -135.796875 "/></g></g></g><g fill="#ffffff" fill-opacity="1"><g transform="translate(582.951118, 134.953448)"><g><path d="M 76.390625 -94.375 L 76.390625 -24.4375 C 76.390625 -13.6875 72.710938 -6.445312 65.359375 -2.71875 L 72.140625 11.875 C 72.597656 12.78125 72.539062 13.515625 71.96875 14.078125 C 71.40625 14.648438 70.671875 14.9375 69.765625 14.9375 L 52.109375 14.9375 C 51.316406 14.9375 50.722656 14.707031 50.328125 14.25 C 49.929688 13.800781 49.566406 13.238281 49.234375 12.5625 L 43.453125 0 L 32.9375 0 C 25.007812 0 18.953125 -2.09375 14.765625 -6.28125 C 10.578125 -10.46875 8.484375 -16.519531 8.484375 -24.4375 L 8.484375 -94.375 C 8.484375 -102.414062 10.578125 -108.5 14.765625 -112.625 C 18.953125 -116.757812 25.007812 -118.828125 32.9375 -118.828125 L 51.9375 -118.828125 C 59.976562 -118.828125 66.0625 -116.757812 70.1875 -112.625 C 74.320312 -108.5 76.390625 -102.414062 76.390625 -94.375 Z M 30.5625 -90.140625 L 30.5625 -28.6875 C 30.5625 -24.15625 32.820312 -21.890625 37.34375 -21.890625 L 48.203125 -21.890625 C 52.734375 -21.890625 55 -24.15625 55 -28.6875 L 55 -90.140625 C 55 -94.660156 52.734375 -96.921875 48.203125 -96.921875 L 37.34375 -96.921875 C 32.820312 -96.921875 30.5625 -94.660156 30.5625 -90.140625 Z M 30.5625 -90.140625 "/></g></g></g><g fill="#ffffff" fill-opacity="1"><g transform="translate(661.036099, 134.953448)"><g><path d="M 70.28125 -118.828125 L 7.8125 -118.828125 C 6 -118.828125 5.09375 -117.921875 5.09375 -116.109375 L 5.09375 -99.140625 C 5.09375 -97.328125 6 -96.421875 7.8125 -96.421875 L 27.5 -96.421875 L 27.5 -2.71875 C 27.5 -0.90625 28.40625 0 30.21875 0 L 47.875 0 C 49.675781 0 50.578125 -0.90625 50.578125 -2.71875 L 50.578125 -96.421875 L 70.28125 -96.421875 C 72.09375 -96.421875 73 -97.328125 73 -99.140625 L 73 -116.109375 C 73 -117.921875 72.09375 -118.828125 70.28125 -118.828125 Z M 70.28125 -118.828125 "/></g></g></g><g fill="#ffffff" fill-opacity="1"><g transform="translate(732.33106, 134.953448)"><g><path d="M 11.203125 0 L 28.859375 0 C 30.671875 0 31.578125 -0.90625 31.578125 -2.71875 L 31.578125 -116.109375 C 31.578125 -117.921875 30.671875 -118.828125 28.859375 -118.828125 L 11.203125 -118.828125 C 9.390625 -118.828125 8.484375 -117.921875 8.484375 -116.109375 L 8.484375 -2.71875 C 8.484375 -0.90625 9.390625 0 11.203125 0 Z M 11.203125 0 "/></g></g></g><g fill="#ffffff" fill-opacity="1"><g transform="translate(765.601853, 134.953448)"><g><path d="M 32.9375 -118.828125 L 51.9375 -118.828125 C 59.976562 -118.828125 66.0625 -116.757812 70.1875 -112.625 C 74.320312 -108.5 76.390625 -102.414062 76.390625 -94.375 L 76.390625 -83.171875 C 76.390625 -81.367188 75.484375 -80.46875 73.671875 -80.46875 L 56.53125 -80.46875 C 54.71875 -80.46875 53.8125 -81.367188 53.8125 -83.171875 L 53.8125 -90.3125 C 53.8125 -94.832031 51.546875 -97.09375 47.015625 -97.09375 L 37.6875 -97.09375 C 33.15625 -97.09375 30.890625 -94.832031 30.890625 -90.3125 L 30.890625 -75.875 L 71.96875 -62.640625 C 74.914062 -61.617188 76.390625 -59.523438 76.390625 -56.359375 L 76.390625 -24.4375 C 76.390625 -16.519531 74.320312 -10.46875 70.1875 -6.28125 C 66.0625 -2.09375 59.976562 0 51.9375 0 L 32.9375 0 C 25.007812 0 18.953125 -2.09375 14.765625 -6.28125 C 10.578125 -10.46875 8.484375 -16.519531 8.484375 -24.4375 L 8.484375 -35.484375 C 8.484375 -37.285156 9.390625 -38.1875 11.203125 -38.1875 L 28.34375 -38.1875 C 30.15625 -38.1875 31.0625 -37.285156 31.0625 -35.484375 L 31.0625 -28.34375 C 31.0625 -23.820312 33.328125 -21.5625 37.859375 -21.5625 L 47.015625 -21.5625 C 51.546875 -21.5625 53.8125 -23.820312 53.8125 -28.34375 L 53.8125 -45.5 L 13.078125 -58.734375 C 10.015625 -59.753906 8.484375 -61.847656 8.484375 -65.015625 L 8.484375 -94.375 C 8.484375 -102.414062 10.578125 -108.5 14.765625 -112.625 C 18.953125 -116.757812 25.007812 -118.828125 32.9375 -118.828125 Z M 32.9375 -118.828125 "/></g></g></g><g fill="#ffffff" fill-opacity="1"><g transform="translate(843.686834, 134.953448)"><g><path d="M 8.484375 -24.4375 L 8.484375 -94.375 C 8.484375 -102.414062 10.578125 -108.5 14.765625 -112.625 C 18.953125 -116.757812 25.007812 -118.828125 32.9375 -118.828125 L 51.9375 -118.828125 C 59.976562 -118.828125 66.0625 -116.757812 70.1875 -112.625 C 74.320312 -108.5 76.390625 -102.414062 76.390625 -94.375 L 76.390625 -24.4375 C 76.390625 -16.519531 74.320312 -10.46875 70.1875 -6.28125 C 66.0625 -2.09375 59.976562 0 51.9375 0 L 32.9375 0 C 25.007812 0 18.953125 -2.09375 14.765625 -6.28125 C 10.578125 -10.46875 8.484375 -16.519531 8.484375 -24.4375 Z M 37.34375 -21.890625 L 48.203125 -21.890625 C 52.734375 -21.890625 55 -24.15625 55 -28.6875 L 55 -90.140625 C 55 -94.660156 52.734375 -96.921875 48.203125 -96.921875 L 37.34375 -96.921875 C 32.820312 -96.921875 30.5625 -94.660156 30.5625 -90.140625 L 30.5625 -28.6875 C 30.5625 -24.15625 32.820312 -21.890625 37.34375 -21.890625 Z M 37.34375 -21.890625 "/></g></g></g><g fill="#ffffff" fill-opacity="1"><g transform="translate(921.771815, 134.953448)"><g><path d="M 8.484375 -2.71875 L 8.484375 -116.109375 C 8.484375 -117.921875 9.390625 -118.828125 11.203125 -118.828125 L 51.9375 -118.828125 C 59.976562 -118.828125 66.0625 -116.734375 70.1875 -112.546875 C 74.320312 -108.359375 76.390625 -102.25 76.390625 -94.21875 L 76.390625 -24.4375 C 76.390625 -16.519531 74.320312 -10.46875 70.1875 -6.28125 C 66.0625 -2.09375 59.976562 0 51.9375 0 L 11.203125 0 C 9.390625 0 8.484375 -0.90625 8.484375 -2.71875 Z M 31.578125 -22.40625 L 47.1875 -22.40625 C 51.71875 -22.40625 53.984375 -24.671875 53.984375 -29.203125 L 53.984375 -89.453125 C 53.984375 -94.097656 51.71875 -96.421875 47.1875 -96.421875 L 31.578125 -96.421875 Z M 31.578125 -22.40625 "/></g></g></g><g fill="#ffffff" fill-opacity="1"><g transform="translate(999.856796, 134.953448)"><g><path d="M 11.203125 0 L 28.859375 0 C 30.671875 0 31.578125 -0.90625 31.578125 -2.71875 L 31.578125 -116.109375 C 31.578125 -117.921875 30.671875 -118.828125 28.859375 -118.828125 L 11.203125 -118.828125 C 9.390625 -118.828125 8.484375 -117.921875 8.484375 -116.109375 L 8.484375 -2.71875 C 8.484375 -0.90625 9.390625 0 11.203125 0 Z M 11.203125 0 "/></g></g></g><g fill="#ffffff" fill-opacity="1"><g transform="translate(1033.127612, 134.953448)"><g><path d="M 67.5625 -118.828125 L 84.53125 -118.828125 C 85.78125 -118.828125 86.6875 -118.457031 87.25 -117.71875 C 87.8125 -116.988281 87.8125 -116.054688 87.25 -114.921875 L 56.1875 -44.46875 L 56.1875 -3.390625 C 56.1875 -1.128906 55.054688 0 52.796875 0 L 36.5 0 C 34.226562 0 33.09375 -1.128906 33.09375 -3.390625 L 33.09375 -44.46875 L 2.03125 -114.921875 C 1.582031 -116.054688 1.613281 -116.988281 2.125 -117.71875 C 2.632812 -118.457031 3.507812 -118.828125 4.75 -118.828125 L 21.734375 -118.828125 C 23.648438 -118.828125 24.945312 -117.921875 25.625 -116.109375 L 44.640625 -72.484375 L 63.65625 -116.109375 C 64.332031 -117.921875 65.632812 -118.828125 67.5625 -118.828125 Z M 67.5625 -118.828125 "/></g></g></g><g fill="#ffffff" fill-opacity="1"><g transform="translate(1115.626114, 134.953448)"><g><path d="M 8.484375 -24.4375 L 8.484375 -94.375 C 8.484375 -102.414062 10.578125 -108.5 14.765625 -112.625 C 18.953125 -116.757812 25.007812 -118.828125 32.9375 -118.828125 L 51.9375 -118.828125 C 59.976562 -118.828125 66.0625 -116.757812 70.1875 -112.625 C 74.320312 -108.5 76.390625 -102.414062 76.390625 -94.375 L 76.390625 -24.4375 C 76.390625 -16.519531 74.320312 -10.46875 70.1875 -6.28125 C 66.0625 -2.09375 59.976562 0 51.9375 0 L 32.9375 0 C 25.007812 0 18.953125 -2.09375 14.765625 -6.28125 C 10.578125 -10.46875 8.484375 -16.519531 8.484375 -24.4375 Z M 37.34375 -21.890625 L 48.203125 -21.890625 C 52.734375 -21.890625 55 -24.15625 55 -28.6875 L 55 -90.140625 C 55 -94.660156 52.734375 -96.921875 48.203125 -96.921875 L 37.34375 -96.921875 C 32.820312 -96.921875 30.5625 -94.660156 30.5625 -90.140625 L 30.5625 -28.6875 C 30.5625 -24.15625 32.820312 -21.890625 37.34375 -21.890625 Z M 37.34375 -21.890625 "/></g></g></g><g fill="#ffffff" fill-opacity="1"><g transform="translate(1193.711095, 134.953448)"><g><path d="M 70.28125 -118.828125 L 7.8125 -118.828125 C 6 -118.828125 5.09375 -117.921875 5.09375 -116.109375 L 5.09375 -99.140625 C 5.09375 -97.328125 6 -96.421875 7.8125 -96.421875 L 27.5 -96.421875 L 27.5 -2.71875 C 27.5 -0.90625 28.40625 0 30.21875 0 L 47.875 0 C 49.675781 0 50.578125 -0.90625 50.578125 -2.71875 L 50.578125 -96.421875 L 70.28125 -96.421875 C 72.09375 -96.421875 73 -97.328125 73 -99.140625 L 73 -116.109375 C 73 -117.921875 72.09375 -118.828125 70.28125 -118.828125 Z M 70.28125 -118.828125 "/></g></g></g><g fill="#ffffff" fill-opacity="1"><g transform="translate(549.692135, 327.284422)"><g><path d="M 65.015625 -118.828125 L 80.46875 -118.828125 C 83.0625 -118.828125 84.078125 -117.582031 83.515625 -115.09375 L 56.53125 -3.0625 C 56.070312 -1.019531 54.828125 0 52.796875 0 L 35.8125 0 C 33.894531 0 32.648438 -1.019531 32.078125 -3.0625 L 5.265625 -115.09375 C 4.691406 -117.582031 5.707031 -118.828125 8.3125 -118.828125 L 23.765625 -118.828125 C 25.804688 -118.828125 27.050781 -117.804688 27.5 -115.765625 L 44.3125 -39.046875 L 61.28125 -115.765625 C 61.84375 -117.804688 63.085938 -118.828125 65.015625 -118.828125 Z M 65.015625 -118.828125 "/></g></g></g><g fill="#ffffff" fill-opacity="1"><g transform="translate(631.675579, 327.284422)"><g><path d="M 88.609375 0 L 72.140625 0 C 70.671875 0 69.765625 -0.789062 69.421875 -2.375 L 64 -23.765625 L 32.078125 -23.765625 L 26.828125 -2.375 C 26.484375 -0.789062 25.578125 0 24.109375 0 L 7.46875 0 C 5.425781 0 4.691406 -0.960938 5.265625 -2.890625 L 33.4375 -116.453125 C 33.78125 -118.035156 34.742188 -118.828125 36.328125 -118.828125 L 59.921875 -118.828125 C 61.503906 -118.828125 62.46875 -118.035156 62.8125 -116.453125 L 90.984375 -2.890625 C 91.546875 -0.960938 90.753906 0 88.609375 0 Z M 58.734375 -43.453125 L 48.046875 -89.625 L 37.34375 -43.453125 Z M 58.734375 -43.453125 "/></g></g></g><g fill="#ffffff" fill-opacity="1"><g transform="translate(721.127547, 327.284422)"><g/></g></g><g fill="#ffffff" fill-opacity="1"><g transform="translate(756.772233, 327.284422)"><g><path d="M 8.484375 -2.71875 L 8.484375 -116.109375 C 8.484375 -117.921875 9.390625 -118.828125 11.203125 -118.828125 L 51.9375 -118.828125 C 59.976562 -118.828125 66.0625 -116.757812 70.1875 -112.625 C 74.320312 -108.5 76.390625 -102.414062 76.390625 -94.375 L 76.390625 -61.109375 C 76.390625 -53.191406 74.320312 -47.164062 70.1875 -43.03125 C 66.0625 -38.894531 59.976562 -36.773438 51.9375 -36.671875 L 30.5625 -36.5 L 30.5625 -2.546875 C 30.5625 -0.734375 29.65625 0.171875 27.84375 0.171875 L 11.203125 0 C 9.390625 0 8.484375 -0.90625 8.484375 -2.71875 Z M 30.5625 -58.390625 L 47.53125 -58.5625 C 52.050781 -58.5625 54.3125 -60.828125 54.3125 -65.359375 L 54.3125 -90.140625 C 54.3125 -94.660156 52.050781 -96.921875 47.53125 -96.921875 L 30.5625 -96.75 Z M 30.5625 -58.390625 "/></g></g></g><g fill="#ffffff" fill-opacity="1"><g transform="translate(834.851682, 327.284422)"><g><path d="M 76.21875 -116.109375 L 76.21875 -99.140625 C 76.21875 -97.210938 75.3125 -96.25 73.5 -96.25 L 31.578125 -96.25 L 31.578125 -70.109375 L 63.484375 -70.109375 C 65.296875 -70.109375 66.203125 -69.144531 66.203125 -67.21875 L 66.203125 -50.421875 C 66.203125 -48.492188 65.296875 -47.53125 63.484375 -47.53125 L 31.578125 -47.53125 L 31.578125 -22.40625 L 73.5 -22.40625 C 75.3125 -22.40625 76.21875 -21.5 76.21875 -19.6875 L 76.21875 -2.71875 C 76.21875 -0.90625 75.3125 0 73.5 0 L 11.03125 0 C 9.332031 0 8.484375 -0.90625 8.484375 -2.71875 L 8.484375 -116.109375 C 8.484375 -117.921875 9.332031 -118.828125 11.03125 -118.828125 L 73.5 -118.828125 C 75.3125 -118.828125 76.21875 -117.921875 76.21875 -116.109375 Z M 76.21875 -116.109375 "/></g></g></g><g fill="#ffffff" fill-opacity="1"><g transform="translate(912.761383, 327.284422)"><g><path d="M 8.484375 -2.71875 L 8.484375 -116.109375 C 8.484375 -117.921875 9.390625 -118.828125 11.203125 -118.828125 L 51.9375 -118.828125 C 59.976562 -118.828125 66.0625 -116.734375 70.1875 -112.546875 C 74.320312 -108.359375 76.390625 -102.25 76.390625 -94.21875 L 76.390625 -24.4375 C 76.390625 -16.519531 74.320312 -10.46875 70.1875 -6.28125 C 66.0625 -2.09375 59.976562 0 51.9375 0 L 11.203125 0 C 9.390625 0 8.484375 -0.90625 8.484375 -2.71875 Z M 31.578125 -22.40625 L 47.1875 -22.40625 C 51.71875 -22.40625 53.984375 -24.671875 53.984375 -29.203125 L 53.984375 -89.453125 C 53.984375 -94.097656 51.71875 -96.421875 47.1875 -96.421875 L 31.578125 -96.421875 Z M 31.578125 -22.40625 "/></g></g></g><g fill="#ffffff" fill-opacity="1"><g transform="translate(990.840855, 327.284422)"><g><path d="M 88.609375 0 L 72.140625 0 C 70.671875 0 69.765625 -0.789062 69.421875 -2.375 L 64 -23.765625 L 32.078125 -23.765625 L 26.828125 -2.375 C 26.484375 -0.789062 25.578125 0 24.109375 0 L 7.46875 0 C 5.425781 0 4.691406 -0.960938 5.265625 -2.890625 L 33.4375 -116.453125 C 33.78125 -118.035156 34.742188 -118.828125 36.328125 -118.828125 L 59.921875 -118.828125 C 61.503906 -118.828125 62.46875 -118.035156 62.8125 -116.453125 L 90.984375 -2.890625 C 91.546875 -0.960938 90.753906 0 88.609375 0 Z M 58.734375 -43.453125 L 48.046875 -89.625 L 37.34375 -43.453125 Z M 58.734375 -43.453125 "/></g></g></g><g fill="#ffffff" fill-opacity="1"><g transform="translate(1080.292829, 327.284422)"><g><path d="M 8.484375 -24.4375 L 8.484375 -94.375 C 8.484375 -102.414062 10.578125 -108.5 14.765625 -112.625 C 18.953125 -116.757812 25.007812 -118.828125 32.9375 -118.828125 L 51.9375 -118.828125 C 59.863281 -118.828125 65.921875 -116.757812 70.109375 -112.625 C 74.296875 -108.5 76.390625 -102.414062 76.390625 -94.375 L 76.390625 -81.8125 C 76.390625 -80.007812 75.484375 -79.109375 73.671875 -79.109375 L 57.71875 -79.109375 C 55.90625 -79.109375 55 -80.007812 55 -81.8125 L 55 -90.140625 C 55 -94.660156 52.734375 -96.921875 48.203125 -96.921875 L 37.34375 -96.921875 C 32.820312 -96.921875 30.5625 -94.660156 30.5625 -90.140625 L 30.5625 -28.6875 C 30.5625 -24.15625 32.820312 -21.890625 37.34375 -21.890625 L 48.203125 -21.890625 C 52.734375 -21.890625 55 -24.15625 55 -28.6875 L 55 -43.453125 L 46.171875 -43.453125 C 44.359375 -43.453125 43.453125 -44.359375 43.453125 -46.171875 L 43.453125 -63.140625 C 43.453125 -64.953125 44.359375 -65.859375 46.171875 -65.859375 L 73.671875 -65.859375 C 75.484375 -65.859375 76.390625 -64.953125 76.390625 -63.140625 L 76.390625 -24.4375 C 76.390625 -16.519531 74.296875 -10.46875 70.109375 -6.28125 C 65.921875 -2.09375 59.863281 0 51.9375 0 L 32.9375 0 C 25.007812 0 18.953125 -2.09375 14.765625 -6.28125 C 10.578125 -10.46875 8.484375 -16.519531 8.484375 -24.4375 Z M 8.484375 -24.4375 "/></g></g></g><g fill="#ffffff" fill-opacity="1"><g transform="translate(1158.372278, 327.284422)"><g><path d="M 8.484375 -24.4375 L 8.484375 -94.375 C 8.484375 -102.414062 10.578125 -108.5 14.765625 -112.625 C 18.953125 -116.757812 25.007812 -118.828125 32.9375 -118.828125 L 51.9375 -118.828125 C 59.976562 -118.828125 66.0625 -116.757812 70.1875 -112.625 C 74.320312 -108.5 76.390625 -102.414062 76.390625 -94.375 L 76.390625 -24.4375 C 76.390625 -16.519531 74.320312 -10.46875 70.1875 -6.28125 C 66.0625 -2.09375 59.976562 0 51.9375 0 L 32.9375 0 C 25.007812 0 18.953125 -2.09375 14.765625 -6.28125 C 10.578125 -10.46875 8.484375 -16.519531 8.484375 -24.4375 Z M 37.34375 -21.890625 L 48.203125 -21.890625 C 52.734375 -21.890625 55 -24.15625 55 -28.6875 L 55 -90.140625 C 55 -94.660156 52.734375 -96.921875 48.203125 -96.921875 L 37.34375 -96.921875 C 32.820312 -96.921875 30.5625 -94.660156 30.5625 -90.140625 L 30.5625 -28.6875 C 30.5625 -24.15625 32.820312 -21.890625 37.34375 -21.890625 Z M 37.34375 -21.890625 "/></g></g></g><g fill="#ffffff" fill-opacity="1"><g transform="translate(1236.451727, 327.284422)"><g><path d="M 8.484375 -24.4375 L 8.484375 -94.375 C 8.484375 -102.414062 10.578125 -108.5 14.765625 -112.625 C 18.953125 -116.757812 25.007812 -118.828125 32.9375 -118.828125 L 51.9375 -118.828125 C 59.863281 -118.828125 65.921875 -116.757812 70.109375 -112.625 C 74.296875 -108.5 76.390625 -102.414062 76.390625 -94.375 L 76.390625 -81.8125 C 76.390625 -80.007812 75.484375 -79.109375 73.671875 -79.109375 L 57.71875 -79.109375 C 55.90625 -79.109375 55 -80.007812 55 -81.8125 L 55 -90.140625 C 55 -94.660156 52.734375 -96.921875 48.203125 -96.921875 L 37.34375 -96.921875 C 32.820312 -96.921875 30.5625 -94.660156 30.5625 -90.140625 L 30.5625 -28.6875 C 30.5625 -24.15625 32.820312 -21.890625 37.34375 -21.890625 L 48.203125 -21.890625 C 52.734375 -21.890625 55 -24.15625 55 -28.6875 L 55 -43.453125 L 46.171875 -43.453125 C 44.359375 -43.453125 43.453125 -44.359375 43.453125 -46.171875 L 43.453125 -63.140625 C 43.453125 -64.953125 44.359375 -65.859375 46.171875 -65.859375 L 73.671875 -65.859375 C 75.484375 -65.859375 76.390625 -64.953125 76.390625 -63.140625 L 76.390625 -24.4375 C 76.390625 -16.519531 74.296875 -10.46875 70.109375 -6.28125 C 65.921875 -2.09375 59.863281 0 51.9375 0 L 32.9375 0 C 25.007812 0 18.953125 -2.09375 14.765625 -6.28125 C 10.578125 -10.46875 8.484375 -16.519531 8.484375 -24.4375 Z M 8.484375 -24.4375 "/></g></g></g><g fill="#ffffff" fill-opacity="1"><g transform="translate(1314.531177, 327.284422)"><g><path d="M 11.203125 0 L 28.859375 0 C 30.671875 0 31.578125 -0.90625 31.578125 -2.71875 L 31.578125 -116.109375 C 31.578125 -117.921875 30.671875 -118.828125 28.859375 -118.828125 L 11.203125 -118.828125 C 9.390625 -118.828125 8.484375 -117.921875 8.484375 -116.109375 L 8.484375 -2.71875 C 8.484375 -0.90625 9.390625 0 11.203125 0 Z M 11.203125 0 "/></g></g></g><g fill="#ffffff" fill-opacity="1"><g transform="translate(1347.799524, 327.284422)"><g><path d="M 81.140625 0 L 63.140625 0 C 61.441406 0 60.144531 -0.847656 59.25 -2.546875 L 37.859375 -44.46875 L 31.578125 -32.421875 L 31.578125 -3.390625 C 31.578125 -1.128906 30.441406 0 28.171875 0 L 11.875 0 C 9.613281 0 8.484375 -1.128906 8.484375 -3.390625 L 8.484375 -115.4375 C 8.484375 -117.695312 9.613281 -118.828125 11.875 -118.828125 L 28.171875 -118.828125 C 30.441406 -118.828125 31.578125 -117.695312 31.578125 -115.4375 L 31.578125 -71.296875 L 57.71875 -116.28125 C 58.625 -117.976562 59.925781 -118.828125 61.625 -118.828125 L 79.4375 -118.828125 C 80.6875 -118.828125 81.566406 -118.429688 82.078125 -117.640625 C 82.585938 -116.847656 82.5 -115.882812 81.8125 -114.75 L 52.96875 -64 L 83.6875 -3.90625 C 84.25 -2.769531 84.300781 -1.832031 83.84375 -1.09375 C 83.394531 -0.363281 82.492188 0 81.140625 0 Z M 81.140625 0 "/></g></g></g><g fill="#ffffff" fill-opacity="1"><g transform="translate(1431.989574, 327.284422)"><g><path d="M 88.609375 0 L 72.140625 0 C 70.671875 0 69.765625 -0.789062 69.421875 -2.375 L 64 -23.765625 L 32.078125 -23.765625 L 26.828125 -2.375 C 26.484375 -0.789062 25.578125 0 24.109375 0 L 7.46875 0 C 5.425781 0 4.691406 -0.960938 5.265625 -2.890625 L 33.4375 -116.453125 C 33.78125 -118.035156 34.742188 -118.828125 36.328125 -118.828125 L 59.921875 -118.828125 C 61.503906 -118.828125 62.46875 -118.035156 62.8125 -116.453125 L 90.984375 -2.890625 C 91.546875 -0.960938 90.753906 0 88.609375 0 Z M 58.734375 -43.453125 L 48.046875 -89.625 L 37.34375 -43.453125 Z M 58.734375 -43.453125 "/></g></g></g><g fill="#ffffff" fill-opacity="1"><g transform="translate(549.680313, 507.528057)"><g><path d="M 57.375 -118.828125 L 73 -118.828125 C 73.894531 -118.828125 74.679688 -118.484375 75.359375 -117.796875 C 76.046875 -117.117188 76.390625 -116.332031 76.390625 -115.4375 L 76.390625 -24.4375 C 76.390625 -16.519531 74.320312 -10.46875 70.1875 -6.28125 C 66.0625 -2.09375 59.976562 0 51.9375 0 L 32.9375 0 C 25.007812 0 18.953125 -2.09375 14.765625 -6.28125 C 10.578125 -10.46875 8.484375 -16.519531 8.484375 -24.4375 L 8.484375 -115.4375 C 8.484375 -116.332031 8.820312 -117.117188 9.5 -117.796875 C 10.1875 -118.484375 10.976562 -118.828125 11.875 -118.828125 L 28.171875 -118.828125 C 29.078125 -118.828125 29.867188 -118.484375 30.546875 -117.796875 C 31.234375 -117.117188 31.578125 -116.332031 31.578125 -115.4375 L 31.578125 -29.203125 C 31.578125 -24.671875 33.835938 -22.40625 38.359375 -22.40625 L 47.1875 -22.40625 C 51.71875 -22.40625 53.984375 -24.671875 53.984375 -29.203125 L 53.984375 -115.4375 C 53.984375 -116.332031 54.320312 -117.117188 55 -117.796875 C 55.675781 -118.484375 56.46875 -118.828125 57.375 -118.828125 Z M 57.375 -118.828125 "/></g></g></g><g fill="#ffffff" fill-opacity="1"><g transform="translate(627.765294, 507.528057)"><g><path d="M 62.296875 -118.828125 L 78.25 -118.828125 C 80.0625 -118.828125 80.96875 -117.921875 80.96875 -116.109375 L 80.96875 -2.71875 C 80.96875 -0.90625 80.0625 0 78.25 0 L 64.84375 0 C 63.488281 0 62.46875 -0.734375 61.78125 -2.203125 L 29.875 -67.046875 L 29.875 -2.71875 C 29.875 -0.90625 28.96875 0 27.15625 0 L 11.203125 0 C 9.390625 0 8.484375 -0.90625 8.484375 -2.71875 L 8.484375 -116.109375 C 8.484375 -117.921875 9.390625 -118.828125 11.203125 -118.828125 L 24.609375 -118.828125 C 25.972656 -118.828125 26.992188 -118.09375 27.671875 -116.625 L 59.578125 -51.78125 L 59.578125 -116.109375 C 59.578125 -117.921875 60.484375 -118.828125 62.296875 -118.828125 Z M 62.296875 -118.828125 "/></g></g></g><g fill="#ffffff" fill-opacity="1"><g transform="translate(710.433545, 507.528057)"><g><path d="M 11.203125 0 L 28.859375 0 C 30.671875 0 31.578125 -0.90625 31.578125 -2.71875 L 31.578125 -116.109375 C 31.578125 -117.921875 30.671875 -118.828125 28.859375 -118.828125 L 11.203125 -118.828125 C 9.390625 -118.828125 8.484375 -117.921875 8.484375 -116.109375 L 8.484375 -2.71875 C 8.484375 -0.90625 9.390625 0 11.203125 0 Z M 11.203125 0 "/></g></g></g><g fill="#ffffff" fill-opacity="1"><g transform="translate(743.704339, 507.528057)"><g><path d="M 65.015625 -118.828125 L 80.46875 -118.828125 C 83.0625 -118.828125 84.078125 -117.582031 83.515625 -115.09375 L 56.53125 -3.0625 C 56.070312 -1.019531 54.828125 0 52.796875 0 L 35.8125 0 C 33.894531 0 32.648438 -1.019531 32.078125 -3.0625 L 5.265625 -115.09375 C 4.691406 -117.582031 5.707031 -118.828125 8.3125 -118.828125 L 23.765625 -118.828125 C 25.804688 -118.828125 27.050781 -117.804688 27.5 -115.765625 L 44.3125 -39.046875 L 61.28125 -115.765625 C 61.84375 -117.804688 63.085938 -118.828125 65.015625 -118.828125 Z M 65.015625 -118.828125 "/></g></g></g><g fill="#ffffff" fill-opacity="1"><g transform="translate(825.693593, 507.528057)"><g><path d="M 76.21875 -116.109375 L 76.21875 -99.140625 C 76.21875 -97.210938 75.3125 -96.25 73.5 -96.25 L 31.578125 -96.25 L 31.578125 -70.109375 L 63.484375 -70.109375 C 65.296875 -70.109375 66.203125 -69.144531 66.203125 -67.21875 L 66.203125 -50.421875 C 66.203125 -48.492188 65.296875 -47.53125 63.484375 -47.53125 L 31.578125 -47.53125 L 31.578125 -22.40625 L 73.5 -22.40625 C 75.3125 -22.40625 76.21875 -21.5 76.21875 -19.6875 L 76.21875 -2.71875 C 76.21875 -0.90625 75.3125 0 73.5 0 L 11.03125 0 C 9.332031 0 8.484375 -0.90625 8.484375 -2.71875 L 8.484375 -116.109375 C 8.484375 -117.921875 9.332031 -118.828125 11.03125 -118.828125 L 73.5 -118.828125 C 75.3125 -118.828125 76.21875 -117.921875 76.21875 -116.109375 Z M 76.21875 -116.109375 "/></g></g></g><g fill="#ffffff" fill-opacity="1"><g transform="translate(903.608825, 507.528057)"><g><path d="M 76.390625 -94.375 L 76.390625 -60.265625 C 76.390625 -50.421875 73.21875 -43.515625 66.875 -39.546875 L 75.703125 -3.0625 C 76.273438 -1.019531 75.484375 0 73.328125 0 L 56.703125 0 C 55.109375 0 54.144531 -0.789062 53.8125 -2.375 L 45.65625 -35.8125 L 30.5625 -35.8125 L 30.5625 -2.71875 C 30.5625 -0.90625 29.65625 0 27.84375 0 L 11.203125 0 C 9.390625 0 8.484375 -0.90625 8.484375 -2.71875 L 8.484375 -116.109375 C 8.484375 -117.921875 9.390625 -118.828125 11.203125 -118.828125 L 51.9375 -118.828125 C 59.976562 -118.828125 66.0625 -116.757812 70.1875 -112.625 C 74.320312 -108.5 76.390625 -102.414062 76.390625 -94.375 Z M 30.5625 -57.71875 L 47.53125 -57.71875 C 52.050781 -57.71875 54.3125 -59.976562 54.3125 -64.5 L 54.3125 -90.140625 C 54.3125 -94.660156 52.050781 -96.921875 47.53125 -96.921875 L 30.5625 -96.921875 Z M 30.5625 -57.71875 "/></g></g></g><g fill="#ffffff" fill-opacity="1"><g transform="translate(981.693806, 507.528057)"><g><path d="M 32.9375 -118.828125 L 51.9375 -118.828125 C 59.976562 -118.828125 66.0625 -116.757812 70.1875 -112.625 C 74.320312 -108.5 76.390625 -102.414062 76.390625 -94.375 L 76.390625 -83.171875 C 76.390625 -81.367188 75.484375 -80.46875 73.671875 -80.46875 L 56.53125 -80.46875 C 54.71875 -80.46875 53.8125 -81.367188 53.8125 -83.171875 L 53.8125 -90.3125 C 53.8125 -94.832031 51.546875 -97.09375 47.015625 -97.09375 L 37.6875 -97.09375 C 33.15625 -97.09375 30.890625 -94.832031 30.890625 -90.3125 L 30.890625 -75.875 L 71.96875 -62.640625 C 74.914062 -61.617188 76.390625 -59.523438 76.390625 -56.359375 L 76.390625 -24.4375 C 76.390625 -16.519531 74.320312 -10.46875 70.1875 -6.28125 C 66.0625 -2.09375 59.976562 0 51.9375 0 L 32.9375 0 C 25.007812 0 18.953125 -2.09375 14.765625 -6.28125 C 10.578125 -10.46875 8.484375 -16.519531 8.484375 -24.4375 L 8.484375 -35.484375 C 8.484375 -37.285156 9.390625 -38.1875 11.203125 -38.1875 L 28.34375 -38.1875 C 30.15625 -38.1875 31.0625 -37.285156 31.0625 -35.484375 L 31.0625 -28.34375 C 31.0625 -23.820312 33.328125 -21.5625 37.859375 -21.5625 L 47.015625 -21.5625 C 51.546875 -21.5625 53.8125 -23.820312 53.8125 -28.34375 L 53.8125 -45.5 L 13.078125 -58.734375 C 10.015625 -59.753906 8.484375 -61.847656 8.484375 -65.015625 L 8.484375 -94.375 C 8.484375 -102.414062 10.578125 -108.5 14.765625 -112.625 C 18.953125 -116.757812 25.007812 -118.828125 32.9375 -118.828125 Z M 32.9375 -118.828125 "/></g></g></g><g fill="#ffffff" fill-opacity="1"><g transform="translate(1059.778787, 507.528057)"><g><path d="M 11.203125 0 L 28.859375 0 C 30.671875 0 31.578125 -0.90625 31.578125 -2.71875 L 31.578125 -116.109375 C 31.578125 -117.921875 30.671875 -118.828125 28.859375 -118.828125 L 11.203125 -118.828125 C 9.390625 -118.828125 8.484375 -117.921875 8.484375 -116.109375 L 8.484375 -2.71875 C 8.484375 -0.90625 9.390625 0 11.203125 0 Z M 11.203125 0 "/></g></g></g><g fill="#ffffff" fill-opacity="1"><g transform="translate(1093.049603, 507.528057)"><g><path d="M 70.28125 -118.828125 L 7.8125 -118.828125 C 6 -118.828125 5.09375 -117.921875 5.09375 -116.109375 L 5.09375 -99.140625 C 5.09375 -97.328125 6 -96.421875 7.8125 -96.421875 L 27.5 -96.421875 L 27.5 -2.71875 C 27.5 -0.90625 28.40625 0 30.21875 0 L 47.875 0 C 49.675781 0 50.578125 -0.90625 50.578125 -2.71875 L 50.578125 -96.421875 L 70.28125 -96.421875 C 72.09375 -96.421875 73 -97.328125 73 -99.140625 L 73 -116.109375 C 73 -117.921875 72.09375 -118.828125 70.28125 -118.828125 Z M 70.28125 -118.828125 "/></g></g></g><g fill="#ffffff" fill-opacity="1"><g transform="translate(1164.344575, 507.528057)"><g><path d="M 76.21875 -116.109375 L 76.21875 -99.140625 C 76.21875 -97.210938 75.3125 -96.25 73.5 -96.25 L 31.578125 -96.25 L 31.578125 -70.109375 L 63.484375 -70.109375 C 65.296875 -70.109375 66.203125 -69.144531 66.203125 -67.21875 L 66.203125 -50.421875 C 66.203125 -48.492188 65.296875 -47.53125 63.484375 -47.53125 L 31.578125 -47.53125 L 31.578125 -22.40625 L 73.5 -22.40625 C 75.3125 -22.40625 76.21875 -21.5 76.21875 -19.6875 L 76.21875 -2.71875 C 76.21875 -0.90625 75.3125 0 73.5 0 L 11.03125 0 C 9.332031 0 8.484375 -0.90625 8.484375 -2.71875 L 8.484375 -116.109375 C 8.484375 -117.921875 9.332031 -118.828125 11.03125 -118.828125 L 73.5 -118.828125 C 75.3125 -118.828125 76.21875 -117.921875 76.21875 -116.109375 Z M 76.21875 -116.109375 "/></g></g></g><g fill="#ffffff" fill-opacity="1"><g transform="translate(1242.259783, 507.528057)"><g><path d="M 70.28125 -118.828125 L 7.8125 -118.828125 C 6 -118.828125 5.09375 -117.921875 5.09375 -116.109375 L 5.09375 -99.140625 C 5.09375 -97.328125 6 -96.421875 7.8125 -96.421875 L 27.5 -96.421875 L 27.5 -2.71875 C 27.5 -0.90625 28.40625 0 30.21875 0 L 47.875 0 C 49.675781 0 50.578125 -0.90625 50.578125 -2.71875 L 50.578125 -96.421875 L 70.28125 -96.421875 C 72.09375 -96.421875 73 -97.328125 73 -99.140625 L 73 -116.109375 C 73 -117.921875 72.09375 -118.828125 70.28125 -118.828125 Z M 70.28125 -118.828125 "/></g></g></g><g fill="#ffffff" fill-opacity="1"><g transform="translate(1313.554755, 507.528057)"><g><path d="M 11.203125 0 L 28.859375 0 C 30.671875 0 31.578125 -0.90625 31.578125 -2.71875 L 31.578125 -116.109375 C 31.578125 -117.921875 30.671875 -118.828125 28.859375 -118.828125 L 11.203125 -118.828125 C 9.390625 -118.828125 8.484375 -117.921875 8.484375 -116.109375 L 8.484375 -2.71875 C 8.484375 -0.90625 9.390625 0 11.203125 0 Z M 11.203125 0 "/></g></g></g></svg>